<svg version="1.1" id="Layer_1" xmlns="http://www.w3.org/2000/svg" xmlns:xlink="http://www.w3.org/1999/xlink" x="0px" y="0px"
	 width="100%" viewBox="0 0 942 714" enable-background="new 0 0 942 714" xml:space="preserve">
<path fill="#001023" opacity="1.000000" stroke="none" 
	d="
M638.000000,715.000000 
	C425.333405,715.000000 213.166794,715.000000 1.000142,715.000000 
	C1.000095,477.000122 1.000095,239.000275 1.000047,1.000302 
	C314.999786,1.000201 628.999573,1.000201 942.999512,1.000101 
	C942.999634,238.999695 942.999634,476.999390 942.999817,714.999512 
	C841.500000,715.000000 740.000000,715.000000 638.000000,715.000000 
M517.143616,583.660156 
	C520.789429,587.038879 524.404846,590.451233 528.089600,593.786926 
	C531.768921,597.117676 535.430115,600.478333 539.264526,603.624390 
	C542.192383,606.026611 544.209106,604.473694 545.113953,601.448730 
	C545.604553,599.808716 545.699951,597.850891 545.322205,596.184143 
	C543.310913,587.310181 541.388855,578.395386 538.804871,569.681824 
	C537.744873,566.107361 535.102966,563.002014 533.326416,559.934814 
	C528.897644,561.876953 528.722534,564.632568 529.736267,567.764221 
	C530.804138,571.063354 532.006165,574.322327 532.969910,577.650879 
	C533.880127,580.794678 534.556824,584.006104 535.336243,587.187744 
	C534.872620,587.436035 534.409058,587.684326 533.945435,587.932617 
	C531.552307,585.971619 529.090088,584.088379 526.780334,582.033569 
	C521.945007,577.731934 517.343201,573.149841 512.311218,569.097900 
	C510.749939,567.840637 508.111084,567.921509 505.965546,567.389771 
	C505.542725,569.857849 504.353760,572.487488 504.833954,574.765198 
	C506.606506,583.172913 508.789856,591.503784 511.105743,599.783264 
	C512.323303,604.136047 513.427612,608.783569 519.295166,611.710571 
	C519.295166,608.015503 519.657837,605.047363 519.220093,602.202271 
	C518.292725,596.174622 516.947998,590.211182 516.152954,583.827454 
	C516.270874,583.688721 516.388794,583.549927 517.143616,583.660156 
M351.374176,171.587296 
	C354.154907,167.492981 357.895569,163.749695 356.650208,158.031570 
	C349.553955,158.693237 342.725800,162.966110 341.666290,167.929535 
	C341.249084,169.883865 342.245911,172.323929 343.189728,174.253830 
	C343.421722,174.728241 345.974670,173.936356 347.451538,173.987823 
	C348.205322,174.014069 348.938934,174.618988 348.820435,175.119110 
	C346.628357,176.303497 344.529480,177.728683 342.224335,178.620941 
	C337.750488,180.352707 337.012695,182.997101 339.211548,187.133011 
	C342.637970,193.577850 345.457031,200.365616 349.157257,206.640213 
	C354.698029,216.035934 360.779663,225.112686 366.650360,234.355148 
	C370.374329,232.702728 373.366425,231.668198 376.063782,230.120102 
	C382.682556,226.321365 389.242065,222.406158 395.679077,218.307953 
	C400.884186,214.994049 396.795288,211.200806 395.614594,207.862091 
	C394.326660,204.220047 391.515442,204.927628 388.653229,206.349487 
	C384.508820,208.408310 380.316711,210.414413 375.993591,212.040619 
	C374.869934,212.463318 372.417847,211.802383 371.937988,210.908203 
	C371.238770,209.605209 371.159363,207.251862 371.922424,206.047424 
	C373.115021,204.164886 375.574768,203.106369 376.862000,201.256439 
	C378.084869,199.499008 379.459747,196.954208 379.049500,195.145355 
	C378.270844,191.712204 375.977142,188.768814 371.694641,189.391876 
	C369.446808,189.718903 367.297180,191.080276 365.079407,191.143875 
	C363.237549,191.196686 361.360840,190.034485 359.499542,189.410507 
	C360.077728,187.846909 360.224060,185.801147 361.321960,184.817886 
	C363.775269,182.620682 366.652710,180.874557 369.448456,179.087097 
	C374.537659,175.833252 374.916107,173.404373 371.439392,168.678329 
	C368.758698,165.034363 366.017151,166.116959 362.792267,167.676590 
	C359.318878,169.356430 355.642212,170.616013 351.374176,171.587296 
M413.038239,452.814880 
	C416.263367,455.687469 419.744690,458.326324 422.640259,461.499634 
	C425.429962,464.556976 428.262360,464.499023 431.535980,462.941772 
	C439.170654,459.310028 447.780670,456.723083 449.318909,446.473969 
	C449.376831,446.087952 450.008270,445.788025 450.968964,444.891022 
	C456.423737,448.759125 462.264984,452.187439 466.502106,457.980865 
	C468.837311,461.173767 467.967926,462.454163 464.997131,464.032440 
	C455.636902,469.005310 448.047882,475.510284 443.274170,485.499207 
	C438.164734,496.190521 431.756287,506.258759 425.987457,516.639343 
	C424.944336,518.516296 423.968170,520.524353 423.503143,522.593689 
	C423.222046,523.844238 423.540619,525.908691 424.392029,526.562012 
	C425.444580,527.369751 427.610931,527.705933 428.797089,527.160645 
	C431.457428,525.937378 433.965149,524.235168 436.252106,522.379333 
	C440.172028,519.198303 443.195984,518.858765 445.979492,522.940369 
	C448.700378,526.930054 450.287598,531.699036 452.317596,536.150940 
	C453.211182,538.110657 453.968903,540.132324 455.261993,543.278259 
	C458.319672,533.791870 465.084961,537.890808 470.148407,537.081177 
	C473.691406,536.514587 476.891235,537.366882 477.744659,542.084106 
	C478.848480,537.323792 479.608246,532.814941 479.946259,528.274780 
	C480.187378,525.036560 480.877747,523.159729 484.760345,522.817627 
	C487.515411,522.574951 490.637024,521.233459 492.692535,519.380981 
	C497.247589,515.275757 501.234375,510.540039 505.548309,505.960175 
	C498.984497,499.579742 490.771942,493.720978 486.314087,482.684113 
	C490.095032,482.896423 493.042267,482.466309 495.563690,483.309448 
	C505.060760,486.485168 512.242249,493.130341 519.564575,499.681580 
	C524.011658,503.660370 525.138000,506.740723 520.445251,511.224335 
	C519.494385,512.132874 519.589844,515.719910 520.585693,516.816284 
	C525.663330,522.406860 531.194946,527.585205 535.732239,532.080139 
	C545.786926,525.518066 554.723206,519.685852 564.515991,513.294678 
	C562.902466,510.939667 561.259521,507.917023 559.022522,505.428314 
	C555.929504,501.987183 552.217468,499.106445 549.078247,495.701874 
	C543.642944,489.807007 542.627502,489.703461 535.894531,494.192017 
	C534.748535,494.956055 531.837219,494.924561 531.028198,494.058594 
	C521.741455,484.117249 512.242065,474.278656 506.792297,461.481415 
	C506.298889,460.322754 506.079193,458.977509 506.036316,457.708618 
	C505.797913,450.649414 501.802673,446.547791 494.772919,445.932983 
	C492.875336,445.767029 490.316193,445.464661 489.301086,444.216309 
	C484.383728,438.169006 479.818542,431.828033 475.304901,425.466003 
	C474.431305,424.234650 474.343933,422.445496 474.215179,422.007233 
	C478.663330,419.603882 482.687683,417.971588 485.992950,415.411041 
	C487.604919,414.162292 487.438538,410.842621 488.833130,409.047729 
	C493.616974,402.890869 498.367218,396.635071 503.795898,391.065857 
	C519.116150,375.349060 534.755005,359.942505 550.297791,344.443298 
	C553.572388,341.177887 556.972900,338.038727 560.679077,334.493439 
	C542.532288,316.842834 524.849854,299.694122 507.240479,282.470764 
	C503.972534,279.274384 501.310547,280.063995 498.361176,282.886932 
	C488.645599,292.186005 478.849518,301.401123 469.063782,310.626648 
	C455.909393,323.028015 442.750153,335.424347 429.542603,347.768890 
	C428.518707,348.725891 427.180145,349.629211 425.847839,349.923401 
	C420.594299,351.083313 417.290100,353.778687 416.823700,359.491730 
	C416.713379,360.842682 415.750092,362.282440 414.822968,363.380585 
	C410.965515,367.949554 407.228882,372.666656 402.963287,376.833282 
	C397.626740,382.046082 392.739319,387.767456 384.721497,389.721893 
	C381.905151,390.408356 379.477295,394.336914 377.718079,397.289246 
	C375.584229,400.870361 374.345978,404.985077 372.182953,410.152374 
	C376.022888,414.734741 380.650208,420.256744 385.311951,425.819794 
	C381.245758,430.686768 376.842072,435.252197 373.292206,440.405792 
	C369.770691,445.518188 366.987244,451.159454 364.107971,456.687439 
	C361.694946,461.320282 359.553619,466.099060 357.438141,470.877899 
	C357.102600,471.635925 357.348846,472.800690 357.648682,473.665588 
	C359.121338,477.913971 363.693420,480.349274 368.635468,478.642242 
	C373.884216,476.829315 379.101562,474.544098 383.782623,471.592743 
	C387.369904,469.331116 390.135712,469.049683 393.663361,471.208191 
	C395.179199,472.135742 397.347687,472.693939 399.083252,472.449921 
	C408.939972,471.064056 412.857635,464.961914 412.114624,452.863556 
	C412.244843,452.711395 412.375092,452.559265 413.038239,452.814880 
M658.655823,245.063156 
	C658.828003,242.673447 659.425171,240.223022 659.094055,237.905212 
	C658.021301,230.396042 653.837830,224.461411 648.777588,219.072296 
	C643.795227,213.766022 637.535889,212.402466 630.632507,213.508286 
	C618.881714,215.390625 609.941467,221.416351 603.427002,231.488159 
	C593.970154,246.109085 601.677002,267.196289 618.603638,272.011871 
	C620.754333,272.623749 623.239929,273.038544 625.368958,272.589661 
	C640.897766,269.315399 652.337341,260.858795 658.655823,245.063156 
M292.633575,332.852997 
	C294.955505,333.570831 297.277435,334.288666 299.933960,335.109924 
	C303.806274,324.196503 307.550476,313.609924 311.321625,303.032959 
	C312.785797,298.926331 311.109375,296.366211 307.405548,294.685272 
	C305.649689,293.888367 303.949493,292.968872 301.652130,291.818542 
	C300.392517,294.134583 299.201599,296.232880 298.096771,298.375580 
	C296.078796,302.289398 294.326996,306.366455 291.974792,310.064117 
	C291.373871,311.008759 288.757690,311.348602 287.409088,310.911621 
	C286.448364,310.600342 285.464142,308.485504 285.542816,307.242126 
	C285.695648,304.826874 286.310364,302.342773 287.243225,300.098969 
	C288.502472,297.069946 287.478821,295.334259 284.742645,294.275604 
	C279.493591,292.244659 274.965485,291.874512 270.918365,300.375916 
	C270.296356,301.682495 268.164429,302.270325 266.730835,303.190552 
	C265.961029,301.390228 265.012146,299.638489 264.504333,297.767090 
	C264.282928,296.950989 264.877716,295.853333 265.251312,294.945038 
	C269.813049,283.854889 269.996643,284.099518 258.319885,277.597870 
	C258.036652,277.440155 257.743195,277.300873 256.856079,276.846466 
	C253.549469,285.160675 250.072540,293.342529 247.037918,301.685242 
	C243.759857,310.697266 243.971985,311.737305 252.648804,315.746704 
	C265.571899,321.718231 278.795990,327.038422 292.633575,332.852997 
M663.380554,368.808685 
	C663.438171,367.191681 663.591736,365.571136 663.532959,363.958374 
	C663.418335,360.811584 662.937500,357.655731 663.106750,354.530640 
	C663.189697,352.999634 664.389038,351.529114 665.083069,350.031189 
	C666.786865,350.860962 668.725464,351.414948 670.122803,352.604645 
	C671.317566,353.621918 672.125244,355.281067 672.696106,356.808807 
	C674.416138,361.411743 678.139526,362.019104 682.296814,362.008331 
	C685.939636,361.998901 687.221802,360.488312 686.617737,356.709778 
	C686.159729,353.845032 686.383240,350.774567 686.895569,347.901215 
	C687.088562,346.818756 688.844849,345.557648 690.085632,345.289093 
	C690.842224,345.125397 692.410339,346.510956 692.849365,347.530029 
	C693.821533,349.786438 694.589294,352.209686 694.947876,354.637604 
	C696.225464,363.289246 697.396423,364.251587 706.090881,364.050537 
	C709.737732,363.966187 711.565674,362.337433 710.938293,358.879669 
	C709.265686,349.660614 707.321167,340.490448 705.445190,331.308899 
	C704.834045,328.317902 703.143066,326.540375 699.863342,327.007843 
	C682.989075,329.413177 666.103699,331.752136 649.275635,334.448090 
	C647.973022,334.656769 646.052063,337.518097 646.169189,339.008942 
	C646.869751,347.926514 647.931946,356.826080 649.234436,365.678497 
	C649.552246,367.838074 651.080994,371.436188 652.298950,371.542053 
	C655.888245,371.853973 660.277771,374.044067 663.380554,368.808685 
M693.473999,292.988403 
	C691.655457,287.171875 690.332458,281.138428 687.903503,275.589050 
	C684.142883,266.997192 682.213867,266.214630 673.338623,269.921143 
	C660.371155,275.336670 647.582153,281.194458 634.837219,287.122070 
	C627.898438,290.349274 628.010315,290.589783 629.986755,298.079712 
	C631.715210,304.630066 634.767639,305.961365 640.615967,302.715668 
	C647.038452,299.151337 647.324829,299.387573 652.592346,304.191132 
	C656.326111,307.596008 660.244568,311.065338 664.668213,313.385315 
	C671.616150,317.029083 678.149292,313.720123 684.445923,310.546265 
	C691.298523,307.092133 694.367859,301.462616 693.473999,292.988403 
M488.447540,140.511780 
	C476.602417,139.829224 464.742523,138.907608 452.583984,142.326294 
	C453.432709,162.383072 454.264984,182.051025 455.109131,202.000183 
	C459.350189,202.000183 463.152313,202.000900 466.954437,202.000015 
	C472.950684,201.998642 478.954346,202.180801 484.941071,201.940903 
	C490.629822,201.712952 494.083160,197.502701 493.963074,191.528366 
	C493.893829,188.083771 490.492035,186.018768 484.839142,186.001266 
	C481.674469,185.991470 478.387482,186.516174 475.388397,185.810516 
	C473.414612,185.346100 471.855804,183.118011 470.111115,181.679672 
	C471.652527,180.278229 473.012695,178.537262 474.794495,177.586212 
	C476.142670,176.866608 478.035492,176.972382 479.674622,177.030273 
	C484.206848,177.190292 484.656769,173.937927 484.948334,170.741455 
	C485.235687,167.590454 484.026215,165.219345 480.591156,164.579849 
	C478.004028,164.098236 475.303894,163.944916 472.865875,163.061111 
	C471.683289,162.632431 470.442078,160.942505 470.258087,159.674072 
	C470.132111,158.805573 471.617035,157.074707 472.673737,156.781525 
	C475.818939,155.908890 479.100159,155.501389 482.343750,155.015823 
	C485.364899,154.563583 488.543152,154.934219 490.202881,151.224838 
	C491.897888,147.436493 492.627869,144.046951 488.447540,140.511780 
M541.792786,150.707764 
	C536.899231,150.139954 531.855896,148.539001 527.143799,149.222336 
	C517.726196,150.588043 509.700684,155.901978 512.862732,168.822510 
	C514.532288,175.644623 518.556030,180.623428 522.877380,185.684982 
	C524.768921,187.900635 526.158203,190.545151 527.775574,192.994904 
	C527.403442,193.444275 527.031250,193.893631 526.659119,194.343002 
	C524.783142,194.343002 522.785278,194.758957 521.057800,194.252487 
	C517.901550,193.327164 514.863220,191.949387 511.853271,190.588760 
	C508.125458,188.903641 505.582153,190.560150 504.126312,193.676712 
	C502.601044,196.941986 500.112640,201.174255 505.364288,203.237061 
	C511.443268,205.624786 517.773010,208.040588 524.182068,208.754196 
	C532.366394,209.665466 539.173889,206.295380 543.514893,198.571213 
	C547.475403,191.524200 544.979309,186.119049 540.458496,180.591599 
	C536.316528,175.527222 532.643066,170.079697 528.538879,164.495865 
	C533.978882,161.602554 538.060242,163.588364 541.960266,165.665100 
	C547.687073,168.714600 551.223450,164.522888 553.139282,158.975983 
	C554.745911,154.324341 550.639282,153.835709 547.742249,152.703720 
	C546.049377,152.042206 544.289124,151.553268 541.792786,150.707764 
M558.225891,194.943985 
	C555.968506,201.581314 554.638123,208.081314 556.399902,215.312180 
	C559.508240,228.069687 573.120178,235.915955 583.244446,235.970810 
	C587.131653,235.991867 590.453064,232.005356 590.882385,227.036392 
	C591.220398,223.124832 588.904480,221.594437 585.404846,220.979782 
	C583.468201,220.639633 581.528137,220.024689 579.734924,219.212753 
	C571.723816,215.585556 568.246338,211.305222 574.272034,202.774200 
	C575.228210,201.420471 575.936768,199.878983 576.973633,198.597305 
	C583.409973,190.641510 591.215820,185.969177 600.393127,196.075256 
	C602.297363,198.172180 604.278076,200.631836 607.465576,198.129959 
	C611.306213,195.115402 613.212769,189.768524 611.358276,186.767792 
	C606.063904,178.201065 590.103577,169.239960 577.510498,175.329346 
	C568.799255,179.541687 563.064941,186.127396 558.225891,194.943985 
M345.621948,240.906387 
	C338.625916,233.580078 331.588623,226.292496 324.656433,218.906265 
	C322.262482,216.355499 320.236816,213.532135 324.186890,210.542221 
	C327.551788,207.995285 327.681091,205.442612 324.779846,202.296631 
	C321.059967,198.262924 318.407471,197.328400 314.942108,200.456604 
	C307.427094,207.240433 300.228302,214.375763 292.952454,221.421356 
	C292.279755,222.072769 291.929596,223.086700 291.517944,223.973267 
	C289.293335,228.764465 293.197449,230.874619 295.810394,233.436264 
	C298.385315,235.960632 300.326294,234.473343 302.480072,232.372269 
	C305.027557,229.887146 307.961090,229.593246 310.814880,232.333069 
	C318.246521,239.467957 325.554321,246.747070 333.253448,253.583603 
	C340.556244,260.068237 341.852478,259.711914 348.901184,252.891632 
	C351.607422,250.273071 351.668304,247.810394 349.520172,245.060760 
	C348.501709,243.757141 347.262970,242.625595 345.621948,240.906387 
M396.358063,158.083054 
	C400.331085,173.668137 404.289612,189.256927 408.284668,204.836365 
	C409.779602,210.666122 411.587219,212.132080 416.410187,210.883682 
	C424.560425,208.774063 432.678345,206.519104 440.736694,204.083191 
	C445.246429,202.719940 446.580017,199.924713 445.271912,195.813660 
	C443.615692,190.608734 440.884094,188.748856 436.375305,189.850006 
	C434.285156,190.360489 432.194855,190.913940 430.165833,191.623093 
	C424.002655,193.777145 423.586761,193.638199 421.705139,187.040085 
	C419.118042,177.967987 416.846130,168.801697 414.076630,159.787155 
	C411.275024,150.668167 409.345551,149.897125 399.910553,151.847107 
	C396.538422,152.544022 395.366638,154.045578 396.358063,158.083054 
M284.828766,375.884888 
	C293.515350,376.198639 293.739746,376.233826 295.065033,367.779694 
	C296.320984,359.768066 296.988708,351.665649 298.019287,343.616516 
	C298.393188,340.696289 297.169495,339.563965 294.399628,338.922028 
	C285.659302,336.896454 282.720093,338.900116 281.985901,347.737976 
	C281.864166,349.203430 281.624573,350.673431 281.281158,352.103333 
	C280.420349,355.687561 278.725800,356.869171 274.522522,356.378601 
	C261.895447,354.904846 249.172089,354.256165 236.209183,353.264374 
	C235.653015,356.445007 235.100281,359.695923 234.513794,362.940765 
	C233.373032,369.252472 233.433395,369.642822 240.008560,370.488708 
	C254.639664,372.370972 269.306580,373.975067 284.828766,375.884888 
M491.838989,252.606857 
	C493.152496,254.199188 494.158508,256.312805 495.829773,257.298553 
	C506.071350,263.339294 517.281738,264.010315 528.525574,261.556793 
	C535.142151,260.112946 541.633911,257.465027 546.532959,250.000076 
	C530.677307,258.985321 515.658875,262.388550 500.134369,253.183777 
	C502.379242,252.922470 504.636475,253.595291 506.850830,253.475586 
	C516.048279,252.978394 525.288513,252.655334 534.399170,251.425110 
	C539.198792,250.777023 542.787842,243.989975 540.707642,240.349884 
	C538.431274,236.366455 535.527344,232.197250 530.263794,232.066895 
	C520.349304,231.821365 510.353302,231.316940 500.528046,232.294922 
	C494.270782,232.917770 488.356018,236.175186 484.478821,242.058975 
	C487.671082,241.412918 490.687836,240.363098 493.531921,238.962662 
	C503.417633,234.094955 513.857056,233.581284 524.487976,235.030548 
	C528.999573,235.645599 531.011902,237.553513 532.424011,241.766769 
	C522.053894,236.010544 511.831726,238.239426 501.673828,240.810211 
	C494.067108,242.735321 491.463684,245.773422 491.838989,252.606857 
M457.184967,304.933044 
	C459.624298,303.227753 462.216034,301.700867 464.468414,299.776703 
	C468.158936,296.623993 471.933136,293.479004 475.112244,289.841492 
	C478.797455,285.624939 477.527924,282.232574 472.064728,281.090820 
	C466.732727,279.976471 461.332062,279.092712 455.918182,278.511292 
	C453.378357,278.238525 450.201538,278.066864 448.234985,279.308777 
	C440.309753,284.313782 432.508789,289.588837 425.144714,295.378265 
	C421.467224,298.269440 422.435852,301.860321 427.092316,302.898010 
	C435.121765,304.687347 443.312042,305.808319 451.477356,306.887939 
	C453.037750,307.094269 454.794647,305.814728 457.184967,304.933044 
M320.365540,547.901428 
	C320.567169,547.444702 320.828430,547.004700 320.961304,546.528748 
	C322.516632,540.958435 324.699310,536.817200 331.375031,534.978088 
	C341.775269,532.112915 344.615509,521.991760 338.093109,514.045532 
	C334.865417,510.113220 331.183228,506.553986 327.413971,502.512085 
	C316.893036,512.224304 306.672211,521.478333 296.771484,531.063171 
	C295.715668,532.085327 296.530426,535.039734 296.477417,537.097839 
	C298.589600,537.032532 300.950958,537.539246 302.750122,536.755432 
	C304.942780,535.800232 306.509186,533.488281 308.640747,532.284119 
	C310.067841,531.477844 312.007019,531.578064 313.717041,531.272644 
	C314.015228,532.966492 314.720490,534.705444 314.538971,536.346191 
	C313.865082,542.436340 312.899200,548.494141 312.042023,554.571106 
	C318.561462,555.866272 318.678467,551.527588 320.365540,547.901428 
M588.033020,299.452820 
	C587.072144,296.937775 586.111328,294.422729 585.150513,291.907684 
	C584.653748,291.953491 584.157043,291.999329 583.660278,292.045135 
	C582.438721,297.832245 580.904907,303.576141 580.096130,309.420380 
	C579.467163,313.965118 577.533508,316.957275 573.023071,317.709503 
	C568.966858,318.386047 564.801575,318.404907 560.742432,319.068970 
	C558.377747,319.455841 556.127258,320.540741 553.825378,321.311584 
	C553.961365,321.993927 554.097351,322.676270 554.233337,323.358582 
	C558.771484,324.123901 563.304565,324.921295 567.848938,325.647888 
	C577.362610,327.168976 579.045532,328.898926 580.981018,338.131500 
	C581.835327,342.206970 583.291504,346.156281 584.474426,350.162872 
	C585.225159,350.076233 585.975830,349.989563 586.726562,349.902924 
	C587.151917,347.808350 587.857849,345.726685 587.954773,343.617065 
	C588.412598,333.651398 590.841431,329.067535 597.038330,327.335907 
	C601.173706,326.180389 605.386658,325.301788 609.518616,324.135193 
	C611.116394,323.684113 612.586304,322.780243 614.114502,322.082672 
	C608.325989,319.546997 602.725769,318.112854 597.055908,317.050476 
	C593.150452,316.318665 590.875549,314.589417 590.417114,310.391449 
	C590.042603,306.961823 589.028015,303.602020 588.033020,299.452820 
M395.363739,297.999481 
	C387.959473,297.986664 382.683502,295.006470 382.065582,290.236176 
	C381.538574,286.167603 381.514038,282.031036 380.919281,277.975586 
	C380.674744,276.307983 379.518494,274.774139 378.776947,273.179443 
	C377.769012,274.706818 376.165161,276.124237 375.859436,277.781189 
	C374.720551,283.953400 374.007935,290.204285 373.125916,296.492737 
	C365.821930,297.560486 358.658752,298.558838 351.520599,299.712128 
	C350.617249,299.858063 349.845154,300.816132 349.012238,301.397980 
	C349.720001,302.170532 350.295227,303.379211 351.158081,303.641541 
	C355.274567,304.892700 359.416351,306.207886 363.647217,306.904327 
	C371.952423,308.271454 372.053711,308.431061 373.602478,316.901550 
	C374.429077,321.422394 376.122467,325.784790 377.424652,330.218719 
	C378.205963,330.191223 378.987274,330.163757 379.768555,330.136292 
	C380.670929,325.414307 381.983337,320.725372 382.367401,315.961609 
	C382.805115,310.532562 386.240723,308.020569 390.576599,306.667114 
	C394.148499,305.552094 398.078186,305.631348 401.807404,304.951508 
	C403.599548,304.624786 405.294922,303.767303 407.034119,303.150208 
	C406.989502,302.554626 406.944855,301.959015 406.900208,301.363434 
	C403.341614,300.245300 399.782990,299.127136 395.363739,297.999481 
M445.423126,607.574341 
	C444.252808,611.399780 446.054626,613.157410 449.655182,613.702759 
	C452.279388,614.100220 454.899597,614.905823 457.516296,614.884460 
	C461.802338,614.849487 466.097351,614.396729 470.357330,613.868408 
	C471.284912,613.753357 472.865204,612.436951 472.772766,611.918579 
	C472.584869,610.865112 471.628204,609.399292 470.691620,609.128113 
	C467.423798,608.181946 464.044250,607.234985 460.678955,607.120972 
	C457.327209,607.007324 455.924438,605.745483 455.384949,602.581970 
	C454.383240,596.708008 456.127686,594.785400 461.976410,594.868896 
	C463.881958,594.896118 465.807587,593.516907 467.724030,592.780884 
	C466.445923,591.173584 465.315887,589.406799 463.827789,588.025757 
	C463.073151,587.325317 461.666565,587.032043 460.565186,587.055115 
	C457.068085,587.128357 455.166779,585.527466 455.161041,582.080566 
	C455.154999,578.464233 457.289062,576.783569 460.791107,576.453918 
	C464.043762,576.147644 467.307434,575.791260 470.502472,575.142639 
	C471.444366,574.951355 472.879486,573.630920 472.820587,572.935242 
	C472.740051,571.983765 471.579041,570.549438 470.652771,570.341858 
	C466.309875,569.369080 461.907135,568.268982 457.491547,568.097961 
	C448.582245,567.752930 447.203033,569.525452 446.948639,578.360962 
	C446.676422,587.813660 446.017700,597.255249 445.423126,607.574341 
M560.567810,546.974182 
	C555.703125,549.418091 550.838379,551.861938 545.413818,554.587036 
	C552.030090,568.603516 558.510498,582.332092 565.080200,596.249817 
	C571.846802,592.597168 578.196289,589.382935 584.310913,585.771240 
	C587.016296,584.173279 589.564087,581.861084 586.377258,577.918213 
	C582.313477,579.700500 578.223389,581.421143 574.196716,583.279297 
	C569.470520,585.460205 567.640625,582.303650 565.744324,578.962036 
	C563.588806,575.163879 566.098328,573.580933 568.847839,572.077637 
	C569.715637,571.603149 571.122192,571.479797 571.458923,570.792480 
	C572.315674,569.043701 572.707336,567.067139 573.285156,565.181702 
	C571.473633,564.799683 569.672974,564.209717 567.846558,564.114624 
	C566.772095,564.058655 565.645813,564.760193 564.561584,565.170471 
	C560.206055,566.818787 559.224548,563.522888 557.846375,560.679871 
	C556.210022,557.304260 557.955078,556.073425 560.860168,554.852295 
	C564.008850,553.528809 566.977112,551.682800 569.793884,549.732178 
	C570.452576,549.276001 570.577698,547.330383 570.206909,546.350464 
	C569.944153,545.655945 568.376099,544.978149 567.492493,545.090881 
	C565.390564,545.359009 563.348999,546.100525 560.567810,546.974182 
M649.119812,507.656036 
	C650.158630,506.114288 651.197449,504.572540 652.236206,503.030792 
	C653.609192,504.733490 655.836243,506.298584 656.138489,508.173828 
	C656.513855,510.502808 655.578125,513.194824 654.691833,515.534241 
	C653.738098,518.052063 652.186035,520.343262 650.319519,523.798706 
	C653.112000,523.670776 654.907593,523.970398 656.423767,523.452209 
	C662.603271,521.340088 665.764099,513.006165 663.104553,506.720947 
	C658.562927,495.987793 650.674866,489.042908 639.639221,485.524628 
	C634.073364,483.750183 629.397705,485.109772 625.352539,491.162384 
	C623.098999,494.534271 622.001709,499.112793 625.034973,502.893188 
	C627.451660,505.905060 630.145081,508.978912 633.358582,511.006073 
	C639.356384,514.789673 645.908813,513.361816 649.119812,507.656036 
M292.667725,499.320251 
	C290.822418,499.564301 288.977112,499.808350 286.109467,500.187592 
	C287.460999,498.334656 288.081360,497.399658 288.785339,496.532532 
	C294.007141,490.100189 299.324463,483.743469 304.448730,477.234619 
	C307.447937,473.425140 306.713043,471.357208 301.336395,469.045441 
	C293.687286,478.126129 285.803528,487.308624 278.163849,496.689850 
	C276.436188,498.811371 274.940094,501.509979 274.451843,504.149109 
	C273.902893,507.116028 274.933746,510.779938 278.997314,509.889984 
	C292.261749,506.985046 305.446899,503.696716 318.576538,500.230072 
	C319.903046,499.879852 320.646820,497.322418 321.661041,495.789307 
	C319.944672,494.859253 318.151337,493.040405 316.527649,493.180969 
	C312.955597,493.490204 309.463501,494.767395 305.949341,495.689758 
	C301.779846,496.784119 297.621429,497.920776 292.667725,499.320251 
M428.412628,587.116699 
	C425.092346,582.754456 421.772064,578.392151 417.936371,573.352722 
	C425.380066,570.649658 432.742493,573.775391 437.975281,568.451721 
	C433.400146,564.239075 423.565430,562.469421 418.143555,564.699097 
	C409.571045,568.224548 408.513184,572.929199 412.775726,580.664856 
	C414.908875,584.536072 418.393951,587.657166 420.572968,591.510315 
	C421.767456,593.622620 422.192383,596.727478 421.593933,599.028381 
	C421.346497,599.979797 417.514771,600.295532 415.302216,600.338745 
	C413.728241,600.369629 412.155579,599.150146 410.546997,599.048645 
	C408.407288,598.913635 406.143463,599.034180 404.124786,599.661987 
	C403.457245,599.869507 402.724701,602.714600 403.154114,603.103394 
	C404.882996,604.668945 406.923920,606.423950 409.093811,606.842468 
	C412.304108,607.461609 415.722839,606.961975 419.051666,607.013611 
	C424.072479,607.091370 428.434479,606.380615 431.148102,601.165039 
	C433.917847,595.841614 432.360443,591.703430 428.412628,587.116699 
M341.540680,572.989929 
	C342.765472,572.159973 344.277496,571.563110 345.169647,570.463318 
	C352.324890,561.643372 361.839081,556.039246 371.603088,550.744934 
	C372.618195,550.194580 373.895935,549.749207 374.481171,548.873718 
	C375.378723,547.531006 375.780426,545.856873 376.392548,544.323364 
	C374.776825,543.893738 373.174835,543.214355 371.540466,543.124634 
	C370.496887,543.067322 369.392609,543.853088 368.337708,544.311829 
	C364.006775,546.195374 359.684296,548.098450 355.040497,550.133850 
	C355.379333,544.585999 355.544739,539.471680 356.051086,534.391418 
	C356.419067,530.698975 355.185089,528.288818 350.383514,526.795471 
	C349.256775,530.954834 347.977081,535.090393 347.028900,539.300537 
	C345.003723,548.292725 346.375671,558.398987 338.199677,565.342285 
	C337.383820,566.035156 336.797119,567.311340 336.631622,568.397339 
	C336.152954,571.537964 337.124786,573.677490 341.540680,572.989929 
M682.226318,479.001526 
	C683.803040,478.653015 685.379700,478.304504 686.956909,477.955902 
	C684.504822,466.907043 671.307312,460.558289 660.092285,464.663239 
	C658.965576,470.092163 670.214417,470.911987 664.420471,479.116364 
	C657.835266,472.629272 651.565125,466.452545 645.294922,460.275787 
	C644.816833,460.609863 644.338806,460.943939 643.860718,461.278015 
	C643.860718,462.576813 643.330322,464.253876 643.944336,465.114807 
	C649.025757,472.239960 653.896057,479.590302 659.692261,486.105591 
	C663.762268,490.680359 668.185852,489.712097 671.315002,484.308258 
	C673.676941,480.229370 676.638916,478.172791 682.226318,479.001526 
M536.657898,428.341095 
	C534.846130,426.317047 533.355652,423.778381 531.142883,422.396454 
	C528.239807,420.583435 524.767273,419.682373 521.539612,418.389130 
	C521.566956,417.961823 521.594299,417.534515 521.621582,417.107208 
	C523.761230,416.745300 525.901367,416.097534 528.040405,416.101318 
	C530.208801,416.105164 532.376099,416.752808 535.432800,417.268402 
	C533.551514,415.572998 532.184937,414.647430 531.218323,413.409485 
	C528.868591,410.400238 525.804382,410.359222 522.729797,411.437134 
	C518.376831,412.963257 513.520569,419.043121 514.516846,422.788727 
	C515.150146,425.169312 517.992371,427.308167 520.327209,428.798370 
	C522.957153,430.476990 526.129883,431.305237 529.066528,432.503357 
	C528.992004,432.945770 528.917542,433.388214 528.843018,433.830627 
	C523.975952,433.830627 519.108948,433.830627 514.241882,433.830627 
	C514.114807,434.516144 513.987732,435.201660 513.860596,435.887177 
	C517.906860,437.192078 522.294739,440.145172 525.914917,439.394684 
	C530.699036,438.402954 534.981018,434.604919 536.657898,428.341095 
M288.647034,467.022583 
	C291.075806,465.964355 293.732239,465.230774 295.857880,463.740265 
	C297.423523,462.642426 299.479919,460.357208 299.244171,458.947968 
	C298.648254,455.386139 295.546661,455.660461 292.947998,456.832245 
	C282.380890,461.597198 271.825684,466.395233 261.376434,471.411011 
	C257.790222,473.132416 256.047760,475.980347 259.058960,480.507538 
	C268.685883,476.093567 278.304291,471.683533 288.647034,467.022583 
M483.998505,576.525940 
	C484.658569,585.615845 485.312195,594.706177 485.984161,603.795166 
	C486.117981,605.605042 485.786499,607.734131 486.633575,609.131897 
	C487.619507,610.758850 489.665466,611.743347 491.251434,613.006653 
	C492.200409,611.693176 493.451965,610.496948 494.018494,609.035217 
	C494.663910,607.369873 495.090942,605.432373 494.932861,603.674316 
	C494.073822,594.121399 493.186005,584.562927 491.898773,575.061768 
	C491.507690,572.175049 490.987152,567.802307 486.893372,568.236572 
	C482.863373,568.664001 484.171234,572.784973 483.998505,576.525940 
M368.424011,590.902466 
	C380.890228,580.687134 392.046570,569.203491 401.899139,556.255249 
	C400.504425,556.195984 399.182770,556.344666 398.308258,557.048706 
	C391.481812,562.544434 384.556122,567.939880 378.028473,573.777161 
	C371.999023,579.168884 366.324402,584.974060 360.743469,590.835205 
	C359.756165,591.872070 359.994965,594.076416 359.667542,595.741638 
	C360.189575,595.951965 360.711609,596.162231 361.233643,596.372559 
	C363.459534,594.715271 365.685394,593.057983 368.424011,590.902466 
M573.784729,407.716248 
	C572.260620,404.305969 570.736450,400.895660 569.212280,397.485382 
	C568.937500,406.615692 561.538696,409.751251 554.283447,413.271851 
	C558.579956,415.460205 562.653564,416.405792 564.860596,418.962646 
	C567.282776,421.768677 567.984436,426.059784 569.469666,429.788818 
	C572.277161,421.458435 572.301880,421.494904 580.654175,415.826935 
	C581.589417,415.192230 582.479736,413.890869 582.566650,412.831055 
	C582.619141,412.191528 581.178589,411.225220 580.235352,410.751343 
	C578.330933,409.794647 576.308044,409.073639 573.784729,407.716248 
M428.580750,235.631287 
	C428.074585,233.457031 427.568390,231.282761 427.062225,229.108505 
	C426.636566,229.008118 426.210876,228.907715 425.785217,228.807327 
	C424.089294,232.261795 422.985260,236.237930 420.530243,239.023346 
	C418.098785,241.782028 414.304840,243.339844 411.108490,245.424377 
	C421.990448,244.314713 422.589661,253.947479 427.374023,261.329132 
	C426.640625,249.722122 433.337616,246.292480 442.098602,244.589905 
	C437.240662,241.778290 430.600494,242.978409 428.580750,235.631287 
M621.491577,397.967407 
	C613.856934,396.636017 612.533997,390.191650 610.254761,383.806854 
	C610.711365,395.370087 605.003296,399.730682 593.799866,398.347198 
	C603.018127,401.927216 608.974060,407.705322 611.488647,416.886200 
	C612.506348,413.487549 612.317505,409.880341 613.929504,407.485199 
	C615.421326,405.268616 618.937134,404.489319 621.376587,402.808472 
	C622.948242,401.725586 625.751160,400.416565 621.491577,397.967407 
M357.016144,384.536011 
	C360.749542,382.979980 364.482971,381.423950 368.192871,379.877716 
	C357.681732,379.282501 356.040833,369.858795 352.494385,361.314911 
	C349.602356,374.572235 349.602356,374.572235 336.162537,381.153748 
	C346.623077,380.671448 351.596222,385.477448 352.105286,395.683319 
	C353.879578,391.497772 355.221985,388.331024 357.016144,384.536011 
M602.539734,544.130554 
	C601.544800,546.242065 600.549927,548.353577 599.091125,551.449585 
	C609.388916,547.321472 616.175110,541.517944 620.393738,531.289062 
	C612.657104,533.886841 607.807739,538.683044 602.539734,544.130554 
M548.654297,248.858597 
	C548.176575,248.679504 547.698914,248.500412 547.221191,248.321304 
	C547.124268,248.584396 547.027344,248.847488 546.930359,249.110565 
	C547.303650,249.236847 547.676941,249.363144 548.654297,248.858597 
z"/>
<path fill="#EEEA9F" opacity="1.000000" stroke="none" 
	d="
M411.701691,453.299927 
	C412.857635,464.961914 408.939972,471.064056 399.083252,472.449921 
	C397.347687,472.693939 395.179199,472.135742 393.663361,471.208191 
	C390.135712,469.049683 387.369904,469.331116 383.782623,471.592743 
	C379.101562,474.544098 373.884216,476.829315 368.635468,478.642242 
	C363.693420,480.349274 359.121338,477.913971 357.648682,473.665588 
	C357.348846,472.800690 357.102600,471.635925 357.438141,470.877899 
	C359.553619,466.099060 361.694946,461.320282 364.107971,456.687439 
	C366.987244,451.159454 369.770691,445.518188 373.292206,440.405792 
	C376.842072,435.252197 381.245758,430.686768 385.311951,425.819794 
	C380.650208,420.256744 376.022888,414.734741 372.182953,410.152374 
	C374.345978,404.985077 375.584229,400.870361 377.718079,397.289246 
	C379.477295,394.336914 381.905151,390.408356 384.721497,389.721893 
	C392.739319,387.767456 397.626740,382.046082 402.963287,376.833282 
	C407.228882,372.666656 410.965515,367.949554 414.822968,363.380585 
	C415.750092,362.282440 416.713379,360.842682 416.823700,359.491730 
	C417.290100,353.778687 420.594299,351.083313 425.847839,349.923401 
	C427.180145,349.629211 428.518707,348.725891 429.542603,347.768890 
	C442.750153,335.424347 455.909393,323.028015 469.063782,310.626648 
	C478.849518,301.401123 488.645599,292.186005 498.361176,282.886932 
	C501.310547,280.063995 503.972534,279.274384 507.240479,282.470764 
	C524.849854,299.694122 542.532288,316.842834 560.679077,334.493439 
	C556.972900,338.038727 553.572388,341.177887 550.297791,344.443298 
	C534.755005,359.942505 519.116150,375.349060 503.795898,391.065857 
	C498.367218,396.635071 493.616974,402.890869 488.833130,409.047729 
	C487.438538,410.842621 487.604919,414.162292 485.992950,415.411041 
	C482.687683,417.971588 478.663330,419.603882 474.215179,422.007233 
	C474.343933,422.445496 474.431305,424.234650 475.304901,425.466003 
	C479.818542,431.828033 484.383728,438.169006 489.301086,444.216309 
	C490.316193,445.464661 492.875336,445.767029 494.772919,445.932983 
	C501.802673,446.547791 505.797913,450.649414 506.036316,457.708618 
	C506.079193,458.977509 506.298889,460.322754 506.792297,461.481415 
	C512.242065,474.278656 521.741455,484.117249 531.028198,494.058594 
	C531.837219,494.924561 534.748535,494.956055 535.894531,494.192017 
	C542.627502,489.703461 543.642944,489.807007 549.078247,495.701874 
	C552.217468,499.106445 555.929504,501.987183 559.022522,505.428314 
	C561.259521,507.917023 562.902466,510.939667 564.515991,513.294678 
	C554.723206,519.685852 545.786926,525.518066 535.732239,532.080139 
	C531.194946,527.585205 525.663330,522.406860 520.585693,516.816284 
	C519.589844,515.719910 519.494385,512.132874 520.445251,511.224335 
	C525.138000,506.740723 524.011658,503.660370 519.564575,499.681580 
	C512.242249,493.130341 505.060760,486.485168 495.563690,483.309448 
	C493.042267,482.466309 490.095032,482.896423 486.314087,482.684113 
	C490.771942,493.720978 498.984497,499.579742 505.548309,505.960175 
	C501.234375,510.540039 497.247589,515.275757 492.692535,519.380981 
	C490.637024,521.233459 487.515411,522.574951 484.760345,522.817627 
	C480.877747,523.159729 480.187378,525.036560 479.946259,528.274780 
	C479.608246,532.814941 478.848480,537.323792 477.744659,542.084106 
	C476.891235,537.366882 473.691406,536.514587 470.148407,537.081177 
	C465.084961,537.890808 458.319672,533.791870 455.261993,543.278259 
	C453.968903,540.132324 453.211182,538.110657 452.317596,536.150940 
	C450.287598,531.699036 448.700378,526.930054 445.979492,522.940369 
	C443.195984,518.858765 440.172028,519.198303 436.252106,522.379333 
	C433.965149,524.235168 431.457428,525.937378 428.797089,527.160645 
	C427.610931,527.705933 425.444580,527.369751 424.392029,526.562012 
	C423.540619,525.908691 423.222046,523.844238 423.503143,522.593689 
	C423.968170,520.524353 424.944336,518.516296 425.987457,516.639343 
	C431.756287,506.258759 438.164734,496.190521 443.274170,485.499207 
	C448.047882,475.510284 455.636902,469.005310 464.997131,464.032440 
	C467.967926,462.454163 468.837311,461.173767 466.502106,457.980865 
	C462.264984,452.187439 456.423737,448.759125 450.968964,444.891022 
	C450.008270,445.788025 449.376831,446.087952 449.318909,446.473969 
	C447.780670,456.723083 439.170654,459.310028 431.535980,462.941772 
	C428.262360,464.499023 425.429962,464.556976 422.640259,461.499634 
	C419.744690,458.326324 416.263367,455.687469 412.539185,452.444214 
	C411.780121,452.126740 411.520111,452.179901 411.260101,452.233063 
	C411.407318,452.588684 411.554504,452.944305 411.701691,453.299927 
M385.999969,398.017181 
	C385.716705,398.087769 385.433441,398.158356 385.150177,398.228912 
	C385.369720,398.549042 385.589264,398.869171 385.998138,399.840393 
	C402.835846,419.377075 421.524384,437.028015 440.883057,454.125732 
	C440.602692,451.945831 439.814423,450.166748 438.547729,448.846802 
	C427.981354,437.836060 417.505737,426.728027 406.630737,416.027466 
	C400.275421,409.774048 393.239716,404.212158 385.999969,398.017181 
M425.036682,357.038940 
	C424.773651,357.095459 424.510620,357.151978 424.247620,357.208496 
	C424.441040,357.528778 424.634430,357.849030 425.012024,358.830078 
	C426.263916,360.586609 427.300415,362.557129 428.800781,364.066742 
	C445.125549,380.492767 461.510193,396.859497 477.944061,413.176361 
	C478.655273,413.882507 480.001678,413.948853 481.052216,414.313232 
	C481.305511,413.958130 481.558838,413.602997 481.812164,413.247864 
	C480.929810,411.949951 480.186188,410.526367 479.142700,409.374420 
	C472.155457,401.660980 465.485535,393.606995 457.981873,386.427246 
	C447.492950,376.391052 436.366608,367.021027 425.036682,357.038940 
M472.418457,314.913391 
	C463.675354,323.312592 454.942596,331.722595 446.184692,340.106354 
	C441.926483,344.182617 437.621124,348.209595 432.302063,353.237305 
	C449.323059,370.286957 465.828186,386.819916 481.440521,402.458557 
	C505.153198,378.758575 527.780701,356.143219 549.416321,334.519196 
	C533.691589,318.781311 517.141113,302.216980 501.248383,286.310944 
	C494.377106,292.798645 486.487762,300.153351 478.724609,307.638916 
	C476.595428,309.691956 474.844025,312.136780 472.418457,314.913391 
M413.103241,414.388092 
	C422.915375,423.560028 432.727539,432.731964 443.068207,442.397980 
	C452.194702,432.453064 461.099365,422.749908 470.386017,412.630463 
	C455.182007,397.992554 438.819580,382.239349 421.755432,365.810577 
	C411.726685,375.250092 402.416351,384.013397 392.878876,392.990479 
	C399.862518,400.390869 406.229797,407.138153 413.103241,414.388092 
M458.385803,491.101624 
	C467.140472,500.803101 475.895172,510.504578 484.649841,520.206055 
	C485.325775,519.602966 486.001740,518.999817 486.677673,518.396729 
	C490.665771,514.838928 494.653900,511.281128 498.577911,507.780487 
	C486.243774,494.798309 474.388367,482.320007 462.630432,469.944305 
	C458.431793,474.135834 454.136871,478.423492 449.587708,482.964935 
	C452.284576,485.445526 455.084473,488.020874 458.385803,491.101624 
M541.184692,524.871765 
	C545.949768,519.816284 550.714783,514.760864 555.861633,509.300385 
	C551.384277,504.530670 547.057800,499.921692 543.129517,495.736877 
	C536.388916,502.451477 530.173035,508.643372 523.349060,515.440979 
	C526.867554,518.714905 530.860535,522.018188 534.337402,525.796448 
	C537.097107,528.795288 538.768433,528.201660 541.184692,524.871765 
M395.085876,427.413483 
	C405.597137,437.562622 415.187988,448.741638 427.846466,457.549927 
	C426.958313,449.202301 386.665985,409.137573 377.590637,408.193695 
	C383.794464,415.027161 389.189819,420.970123 395.085876,427.413483 
M393.371796,435.068359 
	C392.049469,433.233582 390.727142,431.398834 390.119324,430.555542 
	C385.155609,434.922028 381.369843,438.252258 377.262695,441.865234 
	C380.134644,444.633270 382.600525,447.349640 385.437225,449.598206 
	C386.819092,450.693542 389.200317,451.832489 390.597565,451.364471 
	C395.176819,449.830719 399.512238,447.569092 404.184662,445.478363 
	C401.027039,442.440765 397.455902,439.005371 393.371796,435.068359 
M491.394867,468.276398 
	C491.961884,470.123535 492.528900,471.970673 493.238708,474.282928 
	C495.229034,473.176849 496.839539,472.385132 498.342468,471.425049 
	C501.389801,469.478394 503.149994,466.846893 500.318054,463.674164 
	C495.294006,458.045441 489.946442,452.705505 485.297760,447.835144 
	C481.874298,451.073700 479.033752,453.760834 475.959808,456.668732 
	C483.160828,457.473938 488.644104,460.514465 491.394867,468.276398 
M472.038483,440.491791 
	C473.844543,438.861298 475.650604,437.230804 476.883057,436.118164 
	C473.963165,432.842712 471.188690,429.730408 467.909149,426.051544 
	C465.354858,428.863190 463.097015,431.516296 460.661835,433.995178 
	C454.999969,439.758698 454.952576,441.102264 460.660797,446.937500 
	C461.544312,447.840698 462.564850,448.609863 463.533203,449.450714 
	C466.328796,446.487213 468.921356,443.738983 472.038483,440.491791 
M377.420746,469.995514 
	C386.191986,465.987305 387.901978,458.514496 381.396790,452.211273 
	C378.853851,449.747284 376.286407,448.892700 373.380829,452.183197 
	C371.214752,454.636169 368.431122,456.543762 365.238098,459.281006 
	C369.620148,463.389282 373.143860,466.692810 377.420746,469.995514 
M449.079956,490.199432 
	C448.079102,491.069489 446.902069,491.805084 446.113800,492.837463 
	C444.438660,495.031250 442.428192,497.195038 441.562958,499.716888 
	C440.719116,502.176514 446.859222,507.662476 450.207642,508.002319 
	C453.636017,508.350311 460.417480,504.566833 460.842255,501.944580 
	C460.959045,501.223633 460.709106,500.154327 460.212708,499.669464 
	C456.783661,496.319977 453.244781,493.082855 449.079956,490.199432 
M469.501099,466.831573 
	C471.589569,470.129730 473.277344,473.807251 475.911194,476.589020 
	C477.591339,478.363556 480.672394,478.811676 483.125336,479.854523 
	C484.062469,477.497223 485.373230,475.213776 485.856842,472.766846 
	C486.789185,468.049805 484.881104,464.516541 480.722504,464.305298 
	C477.179352,464.125305 473.556274,465.518951 469.501099,466.831573 
M394.858429,455.117371 
	C394.439514,455.605804 393.713226,456.060364 393.654999,456.588531 
	C393.405487,458.852325 392.419647,461.743835 393.423126,463.288849 
	C395.490540,466.471985 399.341583,466.986755 402.693085,465.429291 
	C404.202332,464.727966 405.667694,462.428253 405.873047,460.701538 
	C406.539734,455.095612 403.115021,453.284821 394.858429,455.117371 
M475.277924,529.688538 
	C475.602020,526.875854 475.926117,524.063171 476.181183,521.849426 
	C473.110596,524.174255 470.373352,527.719299 467.110382,528.297424 
	C463.931885,528.860596 460.215485,526.387939 457.060974,525.354858 
	C457.860657,530.130798 465.928040,532.699524 475.277924,529.688538 
M513.889954,482.614380 
	C513.292847,481.824646 512.827271,480.860382 512.066711,480.287689 
	C511.027863,479.505432 509.751556,478.534821 508.601654,478.565613 
	C507.708252,478.589600 506.078400,480.094421 506.145569,480.813110 
	C506.274963,482.197815 507.149261,483.701599 508.138580,484.759583 
	C508.978760,485.658173 510.357452,486.232880 511.599518,486.540283 
	C514.616577,487.286987 515.115112,485.803101 513.889954,482.614380 
M465.714996,523.004761 
	C466.849213,522.652100 467.983429,522.299377 469.577423,521.803650 
	C468.355988,519.890137 467.503174,518.554138 466.665863,517.242371 
	C462.431580,518.240295 462.007812,520.074768 465.714996,523.004761 
z"/>
<path fill="#F1ECA0" opacity="1.000000" stroke="none" 
	d="
M658.479492,245.414261 
	C652.337341,260.858795 640.897766,269.315399 625.368958,272.589661 
	C623.239929,273.038544 620.754333,272.623749 618.603638,272.011871 
	C601.677002,267.196289 593.970154,246.109085 603.427002,231.488159 
	C609.941467,221.416351 618.881714,215.390625 630.632507,213.508286 
	C637.535889,212.402466 643.795227,213.766022 648.777588,219.072296 
	C653.837830,224.461411 658.021301,230.396042 659.094055,237.905212 
	C659.425171,240.223022 658.828003,242.673447 658.479492,245.414261 
M627.173096,232.481400 
	C623.324585,236.096893 619.342834,239.583115 615.668579,243.367737 
	C612.593262,246.535431 612.339783,249.820068 615.835388,253.231979 
	C620.356750,257.645111 622.716553,258.592743 626.798828,255.107834 
	C632.034363,250.638458 637.078125,245.772064 641.355652,240.400803 
	C645.738647,234.897217 643.285461,230.313278 636.169434,230.114624 
	C633.393250,230.037109 630.578430,231.341125 627.173096,232.481400 
z"/>
<path fill="#F0ECA0" opacity="1.000000" stroke="none" 
	d="
M292.262787,332.744385 
	C278.795990,327.038422 265.571899,321.718231 252.648804,315.746704 
	C243.971985,311.737305 243.759857,310.697266 247.037918,301.685242 
	C250.072540,293.342529 253.549469,285.160675 256.856079,276.846466 
	C257.743195,277.300873 258.036652,277.440155 258.319885,277.597870 
	C269.996643,284.099518 269.813049,283.854889 265.251312,294.945038 
	C264.877716,295.853333 264.282928,296.950989 264.504333,297.767090 
	C265.012146,299.638489 265.961029,301.390228 266.730835,303.190552 
	C268.164429,302.270325 270.296356,301.682495 270.918365,300.375916 
	C274.965485,291.874512 279.493591,292.244659 284.742645,294.275604 
	C287.478821,295.334259 288.502472,297.069946 287.243225,300.098969 
	C286.310364,302.342773 285.695648,304.826874 285.542816,307.242126 
	C285.464142,308.485504 286.448364,310.600342 287.409088,310.911621 
	C288.757690,311.348602 291.373871,311.008759 291.974792,310.064117 
	C294.326996,306.366455 296.078796,302.289398 298.096771,298.375580 
	C299.201599,296.232880 300.392517,294.134583 301.652130,291.818542 
	C303.949493,292.968872 305.649689,293.888367 307.405548,294.685272 
	C311.109375,296.366211 312.785797,298.926331 311.321625,303.032959 
	C307.550476,313.609924 303.806274,324.196503 299.933960,335.109924 
	C297.277435,334.288666 294.955505,333.570831 292.262787,332.744385 
z"/>
<path fill="#F1ECA0" opacity="1.000000" stroke="none" 
	d="
M352.054230,172.058929 
	C355.642212,170.616013 359.318878,169.356430 362.792267,167.676590 
	C366.017151,166.116959 368.758698,165.034363 371.439392,168.678329 
	C374.916107,173.404373 374.537659,175.833252 369.448456,179.087097 
	C366.652710,180.874557 363.775269,182.620682 361.321960,184.817886 
	C360.224060,185.801147 360.077728,187.846909 359.499573,189.410507 
	C361.360840,190.034485 363.237549,191.196686 365.079407,191.143875 
	C367.297180,191.080276 369.446808,189.718903 371.694641,189.391876 
	C375.977142,188.768814 378.270844,191.712204 379.049500,195.145355 
	C379.459747,196.954208 378.084869,199.499008 376.862000,201.256439 
	C375.574768,203.106369 373.115021,204.164886 371.922424,206.047424 
	C371.159363,207.251862 371.238770,209.605209 371.937988,210.908203 
	C372.417847,211.802383 374.869934,212.463318 375.993591,212.040619 
	C380.316711,210.414413 384.508820,208.408310 388.653229,206.349487 
	C391.515442,204.927628 394.326660,204.220047 395.614594,207.862091 
	C396.795288,211.200806 400.884186,214.994049 395.679077,218.307953 
	C389.242065,222.406158 382.682556,226.321365 376.063782,230.120102 
	C373.366425,231.668198 370.374329,232.702728 366.650360,234.355148 
	C360.779663,225.112686 354.698029,216.035934 349.157257,206.640213 
	C345.457031,200.365616 342.637970,193.577850 339.211548,187.133011 
	C337.012695,182.997101 337.750488,180.352707 342.224335,178.620941 
	C344.529480,177.728683 346.628357,176.303497 349.307007,175.007629 
	C349.793549,174.896164 350.011749,174.566711 350.353577,174.344147 
	C351.151672,173.417694 351.607971,172.713806 352.032959,172.015747 
	C352.001648,172.021545 352.054230,172.058929 352.054230,172.058929 
z"/>
<path fill="#F1EDA1" opacity="1.000000" stroke="none" 
	d="
M663.263855,369.213593 
	C660.277771,374.044067 655.888245,371.853973 652.298950,371.542053 
	C651.080994,371.436188 649.552246,367.838074 649.234436,365.678497 
	C647.931946,356.826080 646.869751,347.926514 646.169189,339.008942 
	C646.052063,337.518097 647.973022,334.656769 649.275635,334.448090 
	C666.103699,331.752136 682.989075,329.413177 699.863342,327.007843 
	C703.143066,326.540375 704.834045,328.317902 705.445190,331.308899 
	C707.321167,340.490448 709.265686,349.660614 710.938293,358.879669 
	C711.565674,362.337433 709.737732,363.966187 706.090881,364.050537 
	C697.396423,364.251587 696.225464,363.289246 694.947876,354.637604 
	C694.589294,352.209686 693.821533,349.786438 692.849365,347.530029 
	C692.410339,346.510956 690.842224,345.125397 690.085632,345.289093 
	C688.844849,345.557648 687.088562,346.818756 686.895569,347.901215 
	C686.383240,350.774567 686.159729,353.845032 686.617737,356.709778 
	C687.221802,360.488312 685.939636,361.998901 682.296814,362.008331 
	C678.139526,362.019104 674.416138,361.411743 672.696106,356.808807 
	C672.125244,355.281067 671.317566,353.621918 670.122803,352.604645 
	C668.725464,351.414948 666.786865,350.860962 665.083130,350.031219 
	C664.389038,351.529114 663.189697,352.999634 663.106750,354.530640 
	C662.937500,357.655731 663.418335,360.811584 663.532959,363.958374 
	C663.591736,365.571136 663.438171,367.191681 663.263855,369.213593 
z"/>
<path fill="#F1ECA0" opacity="1.000000" stroke="none" 
	d="
M693.487244,293.416931 
	C694.367859,301.462616 691.298523,307.092133 684.445923,310.546265 
	C678.149292,313.720123 671.616150,317.029083 664.668213,313.385315 
	C660.244568,311.065338 656.326111,307.596008 652.592346,304.191132 
	C647.324829,299.387573 647.038452,299.151337 640.615967,302.715668 
	C634.767639,305.961365 631.715210,304.630066 629.986755,298.079712 
	C628.010315,290.589783 627.898438,290.349274 634.837219,287.122070 
	C647.582153,281.194458 660.371155,275.336670 673.338623,269.921143 
	C682.213867,266.214630 684.142883,266.997192 687.903503,275.589050 
	C690.332458,281.138428 691.655457,287.171875 693.487244,293.416931 
M673.667114,298.369385 
	C675.318848,296.685608 677.454285,295.244995 678.463379,293.238068 
	C679.218201,291.736847 678.520874,289.505432 678.470154,287.599152 
	C676.775085,287.749695 674.986572,287.611694 673.408447,288.123199 
	C671.398987,288.774445 669.497437,289.846436 667.668152,290.936554 
	C666.346375,291.724304 665.218323,292.837250 664.003845,293.805145 
	C665.115540,295.112701 665.990662,296.883240 667.402039,297.604309 
	C668.977417,298.409180 671.039673,298.260986 673.667114,298.369385 
z"/>
<path fill="#F1EDA1" opacity="1.000000" stroke="none" 
	d="
M488.812012,140.711121 
	C492.627869,144.046951 491.897888,147.436493 490.202881,151.224838 
	C488.543152,154.934219 485.364899,154.563583 482.343750,155.015823 
	C479.100159,155.501389 475.818939,155.908890 472.673737,156.781525 
	C471.617035,157.074707 470.132111,158.805573 470.258087,159.674072 
	C470.442078,160.942505 471.683289,162.632431 472.865875,163.061111 
	C475.303894,163.944916 478.004028,164.098236 480.591156,164.579849 
	C484.026215,165.219345 485.235687,167.590454 484.948334,170.741455 
	C484.656769,173.937927 484.206848,177.190292 479.674622,177.030273 
	C478.035492,176.972382 476.142670,176.866608 474.794495,177.586212 
	C473.012695,178.537262 471.652527,180.278229 470.111145,181.679672 
	C471.855804,183.118011 473.414612,185.346100 475.388397,185.810516 
	C478.387482,186.516174 481.674469,185.991470 484.839142,186.001266 
	C490.492035,186.018768 493.893829,188.083771 493.963074,191.528366 
	C494.083160,197.502701 490.629822,201.712952 484.941071,201.940903 
	C478.954346,202.180801 472.950684,201.998642 466.954437,202.000015 
	C463.152313,202.000900 459.350189,202.000183 455.109131,202.000183 
	C454.264984,182.051025 453.432709,162.383072 452.583984,142.326294 
	C464.742523,138.907608 476.602417,139.829224 488.812012,140.711121 
z"/>
<path fill="#F0ECA0" opacity="1.000000" stroke="none" 
	d="
M542.175964,150.847229 
	C544.289124,151.553268 546.049377,152.042206 547.742249,152.703720 
	C550.639282,153.835709 554.745911,154.324341 553.139282,158.975983 
	C551.223450,164.522888 547.687073,168.714600 541.960266,165.665100 
	C538.060242,163.588364 533.978882,161.602554 528.538879,164.495865 
	C532.643066,170.079697 536.316528,175.527222 540.458496,180.591599 
	C544.979309,186.119049 547.475403,191.524200 543.514893,198.571213 
	C539.173889,206.295380 532.366394,209.665466 524.182068,208.754196 
	C517.773010,208.040588 511.443268,205.624786 505.364288,203.237061 
	C500.112640,201.174255 502.601044,196.941986 504.126312,193.676712 
	C505.582153,190.560150 508.125458,188.903641 511.853271,190.588760 
	C514.863220,191.949387 517.901550,193.327164 521.057800,194.252487 
	C522.785278,194.758957 524.783142,194.343002 526.659119,194.343002 
	C527.031250,193.893631 527.403442,193.444275 527.775574,192.994904 
	C526.158203,190.545151 524.768921,187.900635 522.877380,185.684982 
	C518.556030,180.623428 514.532288,175.644623 512.862732,168.822510 
	C509.700684,155.901978 517.726196,150.588043 527.143799,149.222336 
	C531.855896,148.539001 536.899231,150.139954 542.175964,150.847229 
z"/>
<path fill="#F0ECA0" opacity="1.000000" stroke="none" 
	d="
M558.433228,194.624237 
	C563.064941,186.127396 568.799255,179.541687 577.510498,175.329346 
	C590.103577,169.239960 606.063904,178.201065 611.358276,186.767792 
	C613.212769,189.768524 611.306213,195.115402 607.465576,198.129959 
	C604.278076,200.631836 602.297363,198.172180 600.393127,196.075256 
	C591.215820,185.969177 583.409973,190.641510 576.973633,198.597305 
	C575.936768,199.878983 575.228210,201.420471 574.272034,202.774200 
	C568.246338,211.305222 571.723816,215.585556 579.734924,219.212753 
	C581.528137,220.024689 583.468201,220.639633 585.404846,220.979782 
	C588.904480,221.594437 591.220398,223.124832 590.882385,227.036392 
	C590.453064,232.005356 587.131653,235.991867 583.244446,235.970810 
	C573.120178,235.915955 559.508240,228.069687 556.399902,215.312180 
	C554.638123,208.081314 555.968506,201.581314 558.433228,194.624237 
z"/>
<path fill="#F1ECA0" opacity="1.000000" stroke="none" 
	d="
M345.872986,241.161255 
	C347.262970,242.625595 348.501709,243.757141 349.520172,245.060760 
	C351.668304,247.810394 351.607422,250.273071 348.901184,252.891632 
	C341.852478,259.711914 340.556244,260.068237 333.253448,253.583603 
	C325.554321,246.747070 318.246521,239.467957 310.814880,232.333069 
	C307.961090,229.593246 305.027557,229.887146 302.480072,232.372269 
	C300.326294,234.473343 298.385315,235.960632 295.810394,233.436264 
	C293.197449,230.874619 289.293335,228.764465 291.517944,223.973267 
	C291.929596,223.086700 292.279755,222.072769 292.952454,221.421356 
	C300.228302,214.375763 307.427094,207.240433 314.942108,200.456604 
	C318.407471,197.328400 321.059967,198.262924 324.779846,202.296631 
	C327.681091,205.442612 327.551788,207.995285 324.186890,210.542221 
	C320.236816,213.532135 322.262482,216.355499 324.656433,218.906265 
	C331.588623,226.292496 338.625916,233.580078 345.872986,241.161255 
z"/>
<path fill="#F0ECA0" opacity="1.000000" stroke="none" 
	d="
M396.245728,157.675827 
	C395.366638,154.045578 396.538422,152.544022 399.910553,151.847107 
	C409.345551,149.897125 411.275024,150.668167 414.076630,159.787155 
	C416.846130,168.801697 419.118042,177.967987 421.705139,187.040085 
	C423.586761,193.638199 424.002655,193.777145 430.165833,191.623093 
	C432.194855,190.913940 434.285156,190.360489 436.375305,189.850006 
	C440.884094,188.748856 443.615692,190.608734 445.271912,195.813660 
	C446.580017,199.924713 445.246429,202.719940 440.736694,204.083191 
	C432.678345,206.519104 424.560425,208.774063 416.410187,210.883682 
	C411.587219,212.132080 409.779602,210.666122 408.284668,204.836365 
	C404.289612,189.256927 400.331085,173.668137 396.245728,157.675827 
z"/>
<path fill="#F1EDA1" opacity="1.000000" stroke="none" 
	d="
M284.393829,375.788696 
	C269.306580,373.975067 254.639664,372.370972 240.008560,370.488708 
	C233.433395,369.642822 233.373032,369.252472 234.513794,362.940765 
	C235.100281,359.695923 235.653015,356.445007 236.209183,353.264374 
	C249.172089,354.256165 261.895447,354.904846 274.522522,356.378601 
	C278.725800,356.869171 280.420349,355.687561 281.281158,352.103333 
	C281.624573,350.673431 281.864166,349.203430 281.985901,347.737976 
	C282.720093,338.900116 285.659302,336.896454 294.399628,338.922028 
	C297.169495,339.563965 298.393188,340.696289 298.019287,343.616516 
	C296.988708,351.665649 296.320984,359.768066 295.065033,367.779694 
	C293.739746,376.233826 293.515350,376.198639 284.393829,375.788696 
z"/>
<path fill="#F0EBA0" opacity="1.000000" stroke="none" 
	d="
M491.649200,252.276230 
	C491.463684,245.773422 494.067108,242.735321 501.673828,240.810211 
	C511.831726,238.239426 522.053894,236.010544 532.424011,241.766769 
	C531.011902,237.553513 528.999573,235.645599 524.487976,235.030548 
	C513.857056,233.581284 503.417633,234.094955 493.531921,238.962662 
	C490.687836,240.363098 487.671082,241.412918 484.478821,242.058975 
	C488.356018,236.175186 494.270782,232.917770 500.528046,232.294922 
	C510.353302,231.316940 520.349304,231.821365 530.263794,232.066895 
	C535.527344,232.197250 538.431274,236.366455 540.707642,240.349884 
	C542.787842,243.989975 539.198792,250.777023 534.399170,251.425110 
	C525.288513,252.655334 516.048279,252.978394 506.850830,253.475586 
	C504.636475,253.595291 502.379242,252.922470 500.134369,253.183777 
	C515.658875,262.388550 530.677307,258.985321 546.532959,250.000076 
	C541.633911,257.465027 535.142151,260.112946 528.525574,261.556793 
	C517.281738,264.010315 506.071350,263.339294 495.829773,257.298553 
	C494.158508,256.312805 493.152496,254.199188 491.649200,252.276230 
z"/>
<path fill="#F0EBA0" opacity="1.000000" stroke="none" 
	d="
M456.822937,305.076874 
	C454.794647,305.814728 453.037750,307.094269 451.477356,306.887939 
	C443.312042,305.808319 435.121765,304.687347 427.092316,302.898010 
	C422.435852,301.860321 421.467224,298.269440 425.144714,295.378265 
	C432.508789,289.588837 440.309753,284.313782 448.234985,279.308777 
	C450.201538,278.066864 453.378357,278.238525 455.918182,278.511292 
	C461.332062,279.092712 466.732727,279.976471 472.064728,281.090820 
	C477.527924,282.232574 478.797455,285.624939 475.112244,289.841492 
	C471.933136,293.479004 468.158936,296.623993 464.468414,299.776703 
	C462.216034,301.700867 459.624298,303.227753 456.822937,305.076874 
z"/>
<path fill="#F0EBA0" opacity="1.000000" stroke="none" 
	d="
M515.774414,584.221375 
	C516.947998,590.211182 518.292725,596.174622 519.220093,602.202271 
	C519.657837,605.047363 519.295166,608.015503 519.295166,611.710571 
	C513.427612,608.783569 512.323303,604.136047 511.105743,599.783264 
	C508.789856,591.503784 506.606506,583.172913 504.833954,574.765198 
	C504.353760,572.487488 505.542725,569.857849 505.965546,567.389771 
	C508.111084,567.921509 510.749939,567.840637 512.311218,569.097900 
	C517.343201,573.149841 521.945007,577.731934 526.780334,582.033569 
	C529.090088,584.088379 531.552307,585.971619 533.945435,587.932617 
	C534.409058,587.684326 534.872620,587.436035 535.336243,587.187744 
	C534.556824,584.006104 533.880127,580.794678 532.969910,577.650879 
	C532.006165,574.322327 530.804138,571.063354 529.736267,567.764221 
	C528.722534,564.632568 528.897644,561.876953 533.326416,559.934814 
	C535.102966,563.002014 537.744873,566.107361 538.804871,569.681824 
	C541.388855,578.395386 543.310913,587.310181 545.322205,596.184143 
	C545.699951,597.850891 545.604553,599.808716 545.113953,601.448730 
	C544.209106,604.473694 542.192383,606.026611 539.264526,603.624390 
	C535.430115,600.478333 531.768921,597.117676 528.089600,593.786926 
	C524.404846,590.451233 520.789429,587.038879 516.613708,583.437988 
	C515.980652,583.551086 515.877563,583.886230 515.774414,584.221375 
z"/>
<path fill="#F0EBA0" opacity="1.000000" stroke="none" 
	d="
M320.245819,548.269409 
	C318.678467,551.527588 318.561462,555.866272 312.042023,554.571106 
	C312.899200,548.494141 313.865082,542.436340 314.538971,536.346191 
	C314.720490,534.705444 314.015228,532.966492 313.717041,531.272705 
	C312.007019,531.578064 310.067841,531.477844 308.640747,532.284119 
	C306.509186,533.488281 304.942780,535.800232 302.750122,536.755432 
	C300.950958,537.539246 298.589600,537.032532 296.477417,537.097778 
	C296.530426,535.039734 295.715668,532.085327 296.771484,531.063171 
	C306.672211,521.478333 316.893036,512.224304 327.413971,502.512085 
	C331.183228,506.553986 334.865417,510.113220 338.093109,514.045532 
	C344.615509,521.991760 341.775269,532.112915 331.375031,534.978088 
	C324.699310,536.817200 322.516632,540.958435 320.961304,546.528748 
	C320.828430,547.004700 320.567169,547.444702 320.245819,548.269409 
M320.843658,520.277588 
	C317.084839,524.192749 321.033783,525.245239 323.348663,526.683228 
	C326.437775,528.602173 329.306122,527.388916 331.112793,524.830627 
	C332.924164,522.265625 334.252686,518.931519 331.130707,516.344543 
	C328.369446,514.056458 325.565491,515.116516 323.198151,517.463806 
	C322.491547,518.164429 321.821655,518.902100 320.843658,520.277588 
z"/>
<path fill="#F0ECA0" opacity="1.000000" stroke="none" 
	d="
M588.165161,299.832031 
	C589.028015,303.602020 590.042603,306.961823 590.417114,310.391449 
	C590.875549,314.589417 593.150452,316.318665 597.055908,317.050476 
	C602.725769,318.112854 608.325989,319.546997 614.114502,322.082672 
	C612.586304,322.780243 611.116394,323.684113 609.518616,324.135193 
	C605.386658,325.301788 601.173706,326.180389 597.038330,327.335907 
	C590.841431,329.067535 588.412598,333.651398 587.954773,343.617065 
	C587.857849,345.726685 587.151917,347.808350 586.726562,349.902924 
	C585.975830,349.989563 585.225159,350.076233 584.474426,350.162872 
	C583.291504,346.156281 581.835327,342.206970 580.981018,338.131500 
	C579.045532,328.898926 577.362610,327.168976 567.848938,325.647888 
	C563.304565,324.921295 558.771484,324.123901 554.233337,323.358582 
	C554.097351,322.676270 553.961365,321.993927 553.825378,321.311584 
	C556.127258,320.540741 558.377747,319.455841 560.742432,319.068970 
	C564.801575,318.404907 568.966858,318.386047 573.023071,317.709503 
	C577.533508,316.957275 579.467163,313.965118 580.096130,309.420380 
	C580.904907,303.576141 582.438721,297.832245 583.660278,292.045135 
	C584.157043,291.999329 584.653748,291.953491 585.150513,291.907684 
	C586.111328,294.422729 587.072144,296.937775 588.165161,299.832031 
z"/>
<path fill="#F1ECA0" opacity="1.000000" stroke="none" 
	d="
M395.794067,298.004211 
	C399.782990,299.127136 403.341614,300.245300 406.900208,301.363434 
	C406.944855,301.959015 406.989502,302.554626 407.034119,303.150208 
	C405.294922,303.767303 403.599548,304.624786 401.807404,304.951508 
	C398.078186,305.631348 394.148499,305.552094 390.576599,306.667114 
	C386.240723,308.020569 382.805115,310.532562 382.367401,315.961609 
	C381.983337,320.725372 380.670929,325.414307 379.768555,330.136292 
	C378.987274,330.163757 378.205963,330.191223 377.424652,330.218719 
	C376.122467,325.784790 374.429077,321.422394 373.602478,316.901550 
	C372.053711,308.431061 371.952423,308.271454 363.647217,306.904327 
	C359.416351,306.207886 355.274567,304.892700 351.158081,303.641541 
	C350.295227,303.379211 349.720001,302.170532 349.012238,301.397980 
	C349.845154,300.816132 350.617249,299.858063 351.520599,299.712128 
	C358.658752,298.558838 365.821930,297.560486 373.125916,296.492737 
	C374.007935,290.204285 374.720551,283.953400 375.859436,277.781189 
	C376.165161,276.124237 377.769012,274.706818 378.776947,273.179443 
	C379.518494,274.774139 380.674744,276.307983 380.919281,277.975586 
	C381.514038,282.031036 381.538574,286.167603 382.065582,290.236176 
	C382.683502,295.006470 387.959473,297.986664 395.794067,298.004211 
z"/>
<path fill="#F0ECA0" opacity="1.000000" stroke="none" 
	d="
M445.475403,607.138000 
	C446.017700,597.255249 446.676422,587.813660 446.948639,578.360962 
	C447.203033,569.525452 448.582245,567.752930 457.491547,568.097961 
	C461.907135,568.268982 466.309875,569.369080 470.652771,570.341858 
	C471.579041,570.549438 472.740051,571.983765 472.820587,572.935242 
	C472.879486,573.630920 471.444366,574.951355 470.502472,575.142639 
	C467.307434,575.791260 464.043762,576.147644 460.791107,576.453918 
	C457.289062,576.783569 455.154999,578.464233 455.161041,582.080566 
	C455.166779,585.527466 457.068085,587.128357 460.565186,587.055115 
	C461.666565,587.032043 463.073151,587.325317 463.827789,588.025757 
	C465.315887,589.406799 466.445923,591.173584 467.724060,592.780884 
	C465.807587,593.516907 463.881958,594.896118 461.976410,594.868896 
	C456.127686,594.785400 454.383240,596.708008 455.384949,602.581970 
	C455.924438,605.745483 457.327209,607.007324 460.678955,607.120972 
	C464.044250,607.234985 467.423798,608.181946 470.691620,609.128113 
	C471.628204,609.399292 472.584869,610.865112 472.772766,611.918579 
	C472.865204,612.436951 471.284912,613.753357 470.357330,613.868408 
	C466.097351,614.396729 461.802338,614.849487 457.516296,614.884460 
	C454.899597,614.905823 452.279388,614.100220 449.655182,613.702759 
	C446.054626,613.157410 444.252808,611.399780 445.475403,607.138000 
z"/>
<path fill="#F0EBA0" opacity="1.000000" stroke="none" 
	d="
M560.925415,546.812500 
	C563.348999,546.100525 565.390564,545.359009 567.492493,545.090881 
	C568.376099,544.978149 569.944153,545.655945 570.206909,546.350464 
	C570.577698,547.330383 570.452576,549.276001 569.793884,549.732178 
	C566.977112,551.682800 564.008850,553.528809 560.860168,554.852295 
	C557.955078,556.073425 556.210022,557.304260 557.846375,560.679871 
	C559.224548,563.522888 560.206055,566.818787 564.561584,565.170471 
	C565.645813,564.760193 566.772095,564.058655 567.846558,564.114624 
	C569.672974,564.209717 571.473633,564.799683 573.285156,565.181702 
	C572.707336,567.067139 572.315674,569.043701 571.458923,570.792480 
	C571.122192,571.479797 569.715637,571.603149 568.847839,572.077637 
	C566.098328,573.580933 563.588806,575.163879 565.744324,578.962036 
	C567.640625,582.303650 569.470520,585.460205 574.196716,583.279297 
	C578.223389,581.421143 582.313477,579.700500 586.377258,577.918213 
	C589.564087,581.861084 587.016296,584.173279 584.310913,585.771240 
	C578.196289,589.382935 571.846802,592.597168 565.080200,596.249817 
	C558.510498,582.332092 552.030090,568.603516 545.413818,554.587036 
	C550.838379,551.861938 555.703125,549.418091 560.925415,546.812500 
z"/>
<path fill="#F0EBA0" opacity="1.000000" stroke="none" 
	d="
M648.999023,508.019745 
	C645.908813,513.361816 639.356384,514.789673 633.358582,511.006073 
	C630.145081,508.978912 627.451660,505.905060 625.034973,502.893188 
	C622.001709,499.112793 623.098999,494.534271 625.352539,491.162384 
	C629.397705,485.109772 634.073364,483.750183 639.639221,485.524628 
	C650.674866,489.042908 658.562927,495.987793 663.104553,506.720947 
	C665.764099,513.006165 662.603271,521.340088 656.423767,523.452209 
	C654.907593,523.970398 653.112000,523.670776 650.319519,523.798706 
	C652.186035,520.343262 653.738098,518.052063 654.691833,515.534241 
	C655.578125,513.194824 656.513855,510.502808 656.138489,508.173828 
	C655.836243,506.298584 653.609192,504.733490 652.236206,503.030792 
	C651.197449,504.572540 650.158630,506.114288 648.999023,508.019745 
M631.228455,498.128876 
	C631.777893,499.332886 632.192200,500.623840 632.900757,501.725525 
	C635.585388,505.900116 643.273560,507.261353 644.500244,503.699158 
	C645.203064,501.658173 645.075867,498.202667 643.786072,496.862091 
	C641.722900,494.717529 638.487366,493.163971 635.530518,492.676636 
	C634.323120,492.477661 632.549500,495.713745 631.228455,498.128876 
z"/>
<path fill="#F0EBA0" opacity="1.000000" stroke="none" 
	d="
M293.062958,499.179657 
	C297.621429,497.920776 301.779846,496.784119 305.949341,495.689758 
	C309.463501,494.767395 312.955597,493.490204 316.527649,493.180969 
	C318.151337,493.040405 319.944672,494.859253 321.661072,495.789307 
	C320.646820,497.322418 319.903046,499.879852 318.576538,500.230072 
	C305.446899,503.696716 292.261749,506.985046 278.997314,509.889984 
	C274.933746,510.779938 273.902893,507.116028 274.451843,504.149109 
	C274.940094,501.509979 276.436188,498.811371 278.163849,496.689850 
	C285.803528,487.308624 293.687286,478.126129 301.336395,469.045441 
	C306.713043,471.357208 307.447937,473.425140 304.448730,477.234619 
	C299.324463,483.743469 294.007141,490.100189 288.785339,496.532532 
	C288.081360,497.399658 287.460999,498.334656 286.109467,500.187592 
	C288.977112,499.808350 290.822418,499.564301 293.062958,499.179657 
z"/>
<path fill="#F0EBA0" opacity="1.000000" stroke="none" 
	d="
M428.654297,587.386902 
	C432.360443,591.703430 433.917847,595.841614 431.148102,601.165039 
	C428.434479,606.380615 424.072479,607.091370 419.051666,607.013611 
	C415.722839,606.961975 412.304108,607.461609 409.093811,606.842468 
	C406.923920,606.423950 404.882996,604.668945 403.154114,603.103394 
	C402.724701,602.714600 403.457245,599.869507 404.124786,599.661987 
	C406.143463,599.034180 408.407288,598.913635 410.546997,599.048645 
	C412.155579,599.150146 413.728241,600.369629 415.302216,600.338745 
	C417.514771,600.295532 421.346497,599.979797 421.593933,599.028381 
	C422.192383,596.727478 421.767456,593.622620 420.572968,591.510315 
	C418.393951,587.657166 414.908875,584.536072 412.775726,580.664856 
	C408.513184,572.929199 409.571045,568.224548 418.143555,564.699097 
	C423.565430,562.469421 433.400146,564.239075 437.975281,568.451721 
	C432.742493,573.775391 425.380066,570.649658 417.936371,573.352722 
	C421.772064,578.392151 425.092346,582.754456 428.654297,587.386902 
z"/>
<path fill="#F0ECA0" opacity="1.000000" stroke="none" 
	d="
M341.206024,573.124756 
	C337.124786,573.677490 336.152954,571.537964 336.631622,568.397339 
	C336.797119,567.311340 337.383820,566.035156 338.199677,565.342285 
	C346.375671,558.398987 345.003723,548.292725 347.028900,539.300537 
	C347.977081,535.090393 349.256775,530.954834 350.383514,526.795471 
	C355.185089,528.288818 356.419067,530.698975 356.051086,534.391418 
	C355.544739,539.471680 355.379333,544.585999 355.040497,550.133850 
	C359.684296,548.098450 364.006775,546.195374 368.337708,544.311829 
	C369.392609,543.853088 370.496887,543.067322 371.540466,543.124634 
	C373.174835,543.214355 374.776825,543.893738 376.392548,544.323364 
	C375.780426,545.856873 375.378723,547.531006 374.481171,548.873718 
	C373.895935,549.749207 372.618195,550.194580 371.603088,550.744934 
	C361.839081,556.039246 352.324890,561.643372 345.169647,570.463318 
	C344.277496,571.563110 342.765472,572.159973 341.206024,573.124756 
z"/>
<path fill="#F0ECA0" opacity="1.000000" stroke="none" 
	d="
M681.795776,479.001892 
	C676.638916,478.172791 673.676941,480.229370 671.315002,484.308258 
	C668.185852,489.712097 663.762268,490.680359 659.692261,486.105591 
	C653.896057,479.590302 649.025757,472.239960 643.944336,465.114807 
	C643.330322,464.253876 643.860718,462.576813 643.860718,461.278015 
	C644.338806,460.943939 644.816833,460.609863 645.294922,460.275787 
	C651.565125,466.452545 657.835266,472.629272 664.420471,479.116364 
	C670.214417,470.911987 658.965576,470.092163 660.086975,464.665222 
	C671.307312,460.558289 684.504822,466.907043 686.956909,477.955902 
	C685.379700,478.304504 683.803040,478.653015 681.795776,479.001892 
z"/>
<path fill="#E7E39B" opacity="1.000000" stroke="none" 
	d="
M536.504028,428.676453 
	C534.981018,434.604919 530.699036,438.402954 525.914917,439.394684 
	C522.294739,440.145172 517.906860,437.192078 513.860596,435.887177 
	C513.987732,435.201660 514.114807,434.516144 514.241882,433.830627 
	C519.108948,433.830627 523.975952,433.830627 528.843018,433.830627 
	C528.917542,433.388214 528.992004,432.945770 529.066528,432.503357 
	C526.129883,431.305237 522.957153,430.476990 520.327209,428.798370 
	C517.992371,427.308167 515.150146,425.169312 514.516846,422.788727 
	C513.520569,419.043121 518.376831,412.963257 522.729797,411.437134 
	C525.804382,410.359222 528.868591,410.400238 531.218323,413.409485 
	C532.184937,414.647430 533.551514,415.572998 535.432800,417.268402 
	C532.376099,416.752808 530.208801,416.105164 528.040405,416.101318 
	C525.901367,416.097534 523.761230,416.745300 521.621582,417.107208 
	C521.594299,417.534515 521.566956,417.961823 521.539612,418.389130 
	C524.767273,419.682373 528.239807,420.583435 531.142883,422.396454 
	C533.355652,423.778381 534.846130,426.317047 536.504028,428.676453 
z"/>
<path fill="#E6E29B" opacity="1.000000" stroke="none" 
	d="
M288.284851,467.148041 
	C278.304291,471.683533 268.685883,476.093567 259.058960,480.507538 
	C256.047760,475.980347 257.790222,473.132416 261.376434,471.411011 
	C271.825684,466.395233 282.380890,461.597198 292.947998,456.832245 
	C295.546661,455.660461 298.648254,455.386139 299.244171,458.947968 
	C299.479919,460.357208 297.423523,462.642426 295.857880,463.740265 
	C293.732239,465.230774 291.075806,465.964355 288.284851,467.148041 
z"/>
<path fill="#E7E39B" opacity="1.000000" stroke="none" 
	d="
M483.989685,576.066467 
	C484.171234,572.784973 482.863373,568.664001 486.893372,568.236572 
	C490.987152,567.802307 491.507690,572.175049 491.898773,575.061768 
	C493.186005,584.562927 494.073822,594.121399 494.932861,603.674316 
	C495.090942,605.432373 494.663910,607.369873 494.018494,609.035217 
	C493.451965,610.496948 492.200409,611.693176 491.251404,613.006653 
	C489.665466,611.743347 487.619507,610.758850 486.633575,609.131897 
	C485.786499,607.734131 486.117981,605.605042 485.984161,603.795166 
	C485.312195,594.706177 484.658569,585.615845 483.989685,576.066467 
z"/>
<path fill="#EAE69D" opacity="1.000000" stroke="none" 
	d="
M368.167664,591.151550 
	C365.685394,593.057983 363.459534,594.715271 361.233643,596.372559 
	C360.711609,596.162231 360.189575,595.951965 359.667542,595.741638 
	C359.994965,594.076416 359.756165,591.872070 360.743469,590.835205 
	C366.324402,584.974060 371.999023,579.168884 378.028473,573.777161 
	C384.556122,567.939880 391.481812,562.544434 398.308258,557.048706 
	C399.182770,556.344666 400.504425,556.195984 401.899139,556.255249 
	C392.046570,569.203491 380.890228,580.687134 368.167664,591.151550 
z"/>
<path fill="#E4E09A" opacity="1.000000" stroke="none" 
	d="
M574.059387,407.985840 
	C576.308044,409.073639 578.330933,409.794647 580.235352,410.751343 
	C581.178589,411.225220 582.619141,412.191528 582.566650,412.831055 
	C582.479736,413.890869 581.589417,415.192230 580.654175,415.826935 
	C572.301880,421.494904 572.277161,421.458435 569.469666,429.788818 
	C567.984436,426.059784 567.282776,421.768677 564.860596,418.962646 
	C562.653564,416.405792 558.579956,415.460205 554.283447,413.271851 
	C561.538696,409.751251 568.937500,406.615692 569.212280,397.485382 
	C570.736450,400.895660 572.260620,404.305969 574.059387,407.985840 
z"/>
<path fill="#E4E09A" opacity="1.000000" stroke="none" 
	d="
M428.709961,236.003265 
	C430.600494,242.978409 437.240662,241.778290 442.098602,244.589905 
	C433.337616,246.292480 426.640625,249.722122 427.374023,261.329132 
	C422.589661,253.947479 421.990448,244.314713 411.108490,245.424377 
	C414.304840,243.339844 418.098785,241.782028 420.530243,239.023346 
	C422.985260,236.237930 424.089294,232.261795 425.785217,228.807327 
	C426.210876,228.907715 426.636566,229.008118 427.062225,229.108505 
	C427.568390,231.282761 428.074585,233.457031 428.709961,236.003265 
z"/>
<path fill="#E4E09A" opacity="1.000000" stroke="none" 
	d="
M621.832581,398.106506 
	C625.751160,400.416565 622.948242,401.725586 621.376587,402.808472 
	C618.937134,404.489319 615.421326,405.268616 613.929504,407.485199 
	C612.317505,409.880341 612.506348,413.487549 611.488647,416.886200 
	C608.974060,407.705322 603.018127,401.927216 593.799866,398.347198 
	C605.003296,399.730682 610.711365,395.370087 610.254761,383.806854 
	C612.533997,390.191650 613.856934,396.636017 621.832581,398.106506 
z"/>
<path fill="#E4E09A" opacity="1.000000" stroke="none" 
	d="
M356.790283,384.850159 
	C355.221985,388.331024 353.879578,391.497772 352.105286,395.683319 
	C351.596222,385.477448 346.623077,380.671448 336.162537,381.153748 
	C349.602356,374.572235 349.602356,374.572235 352.494385,361.314911 
	C356.040833,369.858795 357.681732,379.282501 368.192871,379.877716 
	C364.482971,381.423950 360.749542,382.979980 356.790283,384.850159 
z"/>
<path fill="#E6E29B" opacity="1.000000" stroke="none" 
	d="
M350.011749,174.566711 
	C350.011749,174.566711 349.793549,174.896164 349.737610,174.929245 
	C348.938934,174.618988 348.205322,174.014069 347.451538,173.987823 
	C345.974670,173.936356 343.421722,174.728241 343.189728,174.253830 
	C342.245911,172.323929 341.249084,169.883865 341.666290,167.929535 
	C342.725800,162.966110 349.553955,158.693237 356.650208,158.031570 
	C357.895569,163.749695 354.154907,167.492981 351.714203,171.823120 
	C352.054230,172.058929 352.001648,172.021545 351.525726,171.924133 
	C350.703766,172.740051 350.357758,173.653381 350.011749,174.566711 
z"/>
<path fill="#E6E29B" opacity="1.000000" stroke="none" 
	d="
M602.796753,543.875244 
	C607.807739,538.683044 612.657104,533.886841 620.393738,531.289062 
	C616.175110,541.517944 609.388916,547.321472 599.091125,551.449585 
	C600.549927,548.353577 601.544800,546.242065 602.796753,543.875244 
z"/>
<path fill="#F0EBA0" opacity="1.000000" stroke="none" 
	d="
M548.352295,249.174011 
	C547.676941,249.363144 547.303650,249.236847 546.930359,249.110565 
	C547.027344,248.847488 547.124268,248.584396 547.221191,248.321304 
	C547.698914,248.500412 548.176575,248.679504 548.352295,249.174011 
z"/>
<path fill="#011124" opacity="1.000000" stroke="none" 
	d="
M472.668823,314.657593 
	C474.844025,312.136780 476.595428,309.691956 478.724609,307.638916 
	C486.487762,300.153351 494.377106,292.798645 501.248383,286.310944 
	C517.141113,302.216980 533.691589,318.781311 549.416321,334.519196 
	C527.780701,356.143219 505.153198,378.758575 481.440521,402.458557 
	C465.828186,386.819916 449.323059,370.286957 432.302063,353.237305 
	C437.621124,348.209595 441.926483,344.182617 446.184692,340.106354 
	C454.942596,331.722595 463.675354,323.312592 472.668823,314.657593 
z"/>
<path fill="#031224" opacity="1.000000" stroke="none" 
	d="
M412.850159,414.136780 
	C406.229797,407.138153 399.862518,400.390869 392.878876,392.990479 
	C402.416351,384.013397 411.726685,375.250092 421.755432,365.810577 
	C438.819580,382.239349 455.182007,397.992554 470.386017,412.630463 
	C461.099365,422.749908 452.194702,432.453064 443.068207,442.397980 
	C432.727539,432.731964 422.915375,423.560028 412.850159,414.136780 
z"/>
<path fill="#051526" opacity="1.000000" stroke="none" 
	d="
M458.135101,490.848938 
	C455.084473,488.020874 452.284576,485.445526 449.587708,482.964935 
	C454.136871,478.423492 458.431793,474.135834 462.630432,469.944305 
	C474.388367,482.320007 486.243774,494.798309 498.577911,507.780487 
	C494.653900,511.281128 490.665771,514.838928 486.677673,518.396729 
	C486.001740,518.999817 485.325775,519.602966 484.649841,520.206055 
	C475.895172,510.504578 467.140472,500.803101 458.135101,490.848938 
z"/>
<path fill="#081727" opacity="1.000000" stroke="none" 
	d="
M540.827759,524.969971 
	C538.768433,528.201660 537.097107,528.795288 534.337402,525.796448 
	C530.860535,522.018188 526.867554,518.714905 523.349060,515.440979 
	C530.173035,508.643372 536.388916,502.451477 543.129517,495.736877 
	C547.057800,499.921692 551.384277,504.530670 555.861633,509.300385 
	C550.714783,514.760864 545.949768,519.816284 540.827759,524.969971 
z"/>
<path fill="#0D1C2A" opacity="1.000000" stroke="none" 
	d="
M425.512970,357.365997 
	C436.366608,367.021027 447.492950,376.391052 457.981873,386.427246 
	C465.485535,393.606995 472.155457,401.660980 479.142700,409.374420 
	C480.186188,410.526367 480.929810,411.949951 481.812164,413.247864 
	C481.558838,413.602997 481.305511,413.958130 481.052216,414.313232 
	C480.001678,413.948853 478.655273,413.882507 477.944061,413.176361 
	C461.510193,396.859497 445.125549,380.492767 428.800781,364.066742 
	C427.300415,362.557129 426.263916,360.586609 425.098633,358.305176 
	C425.294464,357.642151 425.403717,357.504089 425.512970,357.365997 
z"/>
<path fill="#0E1D2A" opacity="1.000000" stroke="none" 
	d="
M394.835510,427.163269 
	C389.189819,420.970123 383.794464,415.027161 377.590637,408.193695 
	C386.665985,409.137573 426.958313,449.202301 427.846466,457.549927 
	C415.187988,448.741638 405.597137,437.562622 394.835510,427.163269 
z"/>
<path fill="#13212D" opacity="1.000000" stroke="none" 
	d="
M386.510071,398.339172 
	C393.239716,404.212158 400.275421,409.774048 406.630737,416.027466 
	C417.505737,426.728027 427.981354,437.836060 438.547729,448.846802 
	C439.814423,450.166748 440.602692,451.945831 440.883057,454.125732 
	C421.524384,437.028015 402.835846,419.377075 386.087219,399.309235 
	C386.287537,398.631775 386.398804,398.485474 386.510071,398.339172 
z"/>
<path fill="#091828" opacity="1.000000" stroke="none" 
	d="
M393.628296,435.319153 
	C397.455902,439.005371 401.027039,442.440765 404.184662,445.478363 
	C399.512238,447.569092 395.176819,449.830719 390.597565,451.364471 
	C389.200317,451.832489 386.819092,450.693542 385.437225,449.598206 
	C382.600525,447.349640 380.134644,444.633270 377.262695,441.865234 
	C381.369843,438.252258 385.155609,434.922028 390.119324,430.555542 
	C390.727142,431.398834 392.049469,433.233582 393.628296,435.319153 
z"/>
<path fill="#0D1C2A" opacity="1.000000" stroke="none" 
	d="
M491.274292,467.914459 
	C488.644104,460.514465 483.160828,457.473938 475.959808,456.668732 
	C479.033752,453.760834 481.874298,451.073700 485.297760,447.835144 
	C489.946442,452.705505 495.294006,458.045441 500.318054,463.674164 
	C503.149994,466.846893 501.389801,469.478394 498.342468,471.425049 
	C496.839539,472.385132 495.229034,473.176849 493.238708,474.282928 
	C492.528900,471.970673 491.961884,470.123535 491.274292,467.914459 
z"/>
<path fill="#091828" opacity="1.000000" stroke="none" 
	d="
M471.776184,440.741272 
	C468.921356,443.738983 466.328796,446.487213 463.533203,449.450714 
	C462.564850,448.609863 461.544312,447.840698 460.660797,446.937500 
	C454.952576,441.102264 454.999969,439.758698 460.661835,433.995178 
	C463.097015,431.516296 465.354858,428.863190 467.909149,426.051544 
	C471.188690,429.730408 473.963165,432.842712 476.883057,436.118164 
	C475.650604,437.230804 473.844543,438.861298 471.776184,440.741272 
z"/>
<path fill="#091828" opacity="1.000000" stroke="none" 
	d="
M377.044159,469.995911 
	C373.143860,466.692810 369.620148,463.389282 365.238098,459.281006 
	C368.431122,456.543762 371.214752,454.636169 373.380829,452.183197 
	C376.286407,448.892700 378.853851,449.747284 381.396790,452.211273 
	C387.901978,458.514496 386.191986,465.987305 377.044159,469.995911 
z"/>
<path fill="#081727" opacity="1.000000" stroke="none" 
	d="
M449.410583,490.004547 
	C453.244781,493.082855 456.783661,496.319977 460.212708,499.669464 
	C460.709106,500.154327 460.959045,501.223633 460.842255,501.944580 
	C460.417480,504.566833 453.636017,508.350311 450.207642,508.002319 
	C446.859222,507.662476 440.719116,502.176514 441.562958,499.716888 
	C442.428192,497.195038 444.438660,495.031250 446.113800,492.837463 
	C446.902069,491.805084 448.079102,491.069489 449.410583,490.004547 
z"/>
<path fill="#061626" opacity="1.000000" stroke="none" 
	d="
M469.734802,466.524017 
	C473.556274,465.518951 477.179352,464.125305 480.722504,464.305298 
	C484.881104,464.516541 486.789185,468.049805 485.856842,472.766846 
	C485.373230,475.213776 484.062469,477.497223 483.125336,479.854523 
	C480.672394,478.811676 477.591339,478.363556 475.911194,476.589020 
	C473.277344,473.807251 471.589569,470.129730 469.734802,466.524017 
z"/>
<path fill="#0D1C2A" opacity="1.000000" stroke="none" 
	d="
M395.244141,455.022034 
	C403.115021,453.284821 406.539734,455.095612 405.873047,460.701538 
	C405.667694,462.428253 404.202332,464.727966 402.693085,465.429291 
	C399.341583,466.986755 395.490540,466.471985 393.423126,463.288849 
	C392.419647,461.743835 393.405487,458.852325 393.654999,456.588531 
	C393.713226,456.060364 394.439514,455.605804 395.244141,455.022034 
z"/>
<path fill="#13212D" opacity="1.000000" stroke="none" 
	d="
M474.916809,529.935425 
	C465.928040,532.699524 457.860657,530.130798 457.060974,525.354858 
	C460.215485,526.387939 463.931885,528.860596 467.110382,528.297424 
	C470.373352,527.719299 473.110596,524.174255 476.181183,521.849426 
	C475.926117,524.063171 475.602020,526.875854 474.916809,529.935425 
z"/>
<path fill="#13212D" opacity="1.000000" stroke="none" 
	d="
M514.012207,482.952698 
	C515.115112,485.803101 514.616577,487.286987 511.599518,486.540283 
	C510.357452,486.232880 508.978760,485.658173 508.138580,484.759583 
	C507.149261,483.701599 506.274963,482.197815 506.145569,480.813110 
	C506.078400,480.094421 507.708252,478.589600 508.601654,478.565613 
	C509.751556,478.534821 511.027863,479.505432 512.066711,480.287689 
	C512.827271,480.860382 513.292847,481.824646 514.012207,482.952698 
z"/>
<path fill="#13212D" opacity="1.000000" stroke="none" 
	d="
M465.348572,522.908691 
	C462.007812,520.074768 462.431580,518.240295 466.665863,517.242371 
	C467.503174,518.554138 468.355988,519.890137 469.577423,521.803650 
	C467.983429,522.299377 466.849213,522.652100 465.348572,522.908691 
z"/>
<path fill="#0D1C2A" opacity="1.000000" stroke="none" 
	d="
M425.006531,357.974792 
	C424.634430,357.849030 424.441040,357.528778 424.247620,357.208496 
	C424.510620,357.151978 424.773651,357.095459 425.274841,357.202454 
	C425.403717,357.504089 425.294464,357.642151 425.006531,357.974792 
z"/>
<path fill="#001023" opacity="1.000000" stroke="none" 
	d="
M411.908142,453.081726 
	C411.554504,452.944305 411.407318,452.588684 411.260101,452.233063 
	C411.520111,452.179901 411.780121,452.126740 412.272705,452.240356 
	C412.375092,452.559265 412.244843,452.711395 411.908142,453.081726 
z"/>
<path fill="#13212D" opacity="1.000000" stroke="none" 
	d="
M385.992554,398.983704 
	C385.589264,398.869171 385.369720,398.549042 385.150177,398.228912 
	C385.433441,398.158356 385.716705,398.087769 386.255005,398.178162 
	C386.398804,398.485474 386.287537,398.631775 385.992554,398.983704 
z"/>
<path fill="#061626" opacity="1.000000" stroke="none" 
	d="
M627.477173,232.248642 
	C630.578430,231.341125 633.393250,230.037109 636.169434,230.114624 
	C643.285461,230.313278 645.738647,234.897217 641.355652,240.400803 
	C637.078125,245.772064 632.034363,250.638458 626.798828,255.107834 
	C622.716553,258.592743 620.356750,257.645111 615.835388,253.231979 
	C612.339783,249.820068 612.593262,246.535431 615.668579,243.367737 
	C619.342834,239.583115 623.324585,236.096893 627.477173,232.248642 
z"/>
<path fill="#001023" opacity="1.000000" stroke="none" 
	d="
M350.353577,174.344147 
	C350.357758,173.653381 350.703766,172.740051 351.557037,171.918335 
	C351.607971,172.713806 351.151672,173.417694 350.353577,174.344147 
z"/>
<path fill="#0E1D2A" opacity="1.000000" stroke="none" 
	d="
M673.278564,298.448486 
	C671.039673,298.260986 668.977417,298.409180 667.402039,297.604309 
	C665.990662,296.883240 665.115540,295.112701 664.003845,293.805145 
	C665.218323,292.837250 666.346375,291.724304 667.668152,290.936554 
	C669.497437,289.846436 671.398987,288.774445 673.408447,288.123199 
	C674.986572,287.611694 676.775085,287.749695 678.470154,287.599152 
	C678.520874,289.505432 679.218201,291.736847 678.463379,293.238068 
	C677.454285,295.244995 675.318848,296.685608 673.278564,298.448486 
z"/>
<path fill="#001023" opacity="1.000000" stroke="none" 
	d="
M515.963745,584.024414 
	C515.877563,583.886230 515.980652,583.551086 516.295288,583.313477 
	C516.388794,583.549927 516.270874,583.688721 515.963745,584.024414 
z"/>
<path fill="#0E1D2A" opacity="1.000000" stroke="none" 
	d="
M320.989319,519.950195 
	C321.821655,518.902100 322.491547,518.164429 323.198151,517.463806 
	C325.565491,515.116516 328.369446,514.056458 331.130707,516.344543 
	C334.252686,518.931519 332.924164,522.265625 331.112793,524.830627 
	C329.306122,527.388916 326.437775,528.602173 323.348663,526.683228 
	C321.033783,525.245239 317.084839,524.192749 320.989319,519.950195 
z"/>
<path fill="#0D1C2A" opacity="1.000000" stroke="none" 
	d="
M631.130981,497.757965 
	C632.549500,495.713745 634.323120,492.477661 635.530518,492.676636 
	C638.487366,493.163971 641.722900,494.717529 643.786072,496.862091 
	C645.075867,498.202667 645.203064,501.658173 644.500244,503.699158 
	C643.273560,507.261353 635.585388,505.900116 632.900757,501.725525 
	C632.192200,500.623840 631.777893,499.332886 631.130981,497.757965 
z"/>
</svg>